<?xml version="1.0" encoding="utf-8"?>
<!-- Generator: Adobe Illustrator 17.0.0, SVG Export Plug-In . SVG Version: 6.00 Build 0)  -->
<!DOCTYPE svg PUBLIC "-//W3C//DTD SVG 1.1 Tiny//EN" "http://www.w3.org/Graphics/SVG/1.1/DTD/svg11-tiny.dtd" [
        <!ENTITY ns_flows "http://ns.adobe.com/Flows/1.0/">
        <!ENTITY ns_extend "http://ns.adobe.com/Extensibility/1.0/">
        <!ENTITY ns_ai "http://ns.adobe.com/AdobeIllustrator/10.0/">
        <!ENTITY ns_graphs "http://ns.adobe.com/Graphs/1.0/">
        ]>
<svg version="1.1" baseProfile="tiny" id="Layer_1"
	 xmlns="http://www.w3.org/2000/svg"
	 x="0px" y="0px" width="57.9px" height="58.5px" viewBox="0 0 57.9 58.5" xml:space="preserve">
<g>
	<path fill="#FFCB31" d="M59.1,0.3H1.3v54.2c0,2.3,1.9,4.1,4.1,4.1H55c2.3,0,4.1-1.9,4.1-4.1V0.3z"/>
	<path fill="#FFFFFF" d="M10.6,44.7H12c0.1,0,0.2,0,0.3,0c0.1,0,0.2-0.1,0.3-0.2c0.1-0.1,0.2-0.2,0.2-0.3c0.1-0.1,0.1-0.3,0.1-0.4
		c0-0.2,0-0.3-0.1-0.5c-0.1-0.1-0.1-0.2-0.2-0.3c-0.1-0.1-0.2-0.1-0.3-0.1c-0.1,0-0.2,0-0.4,0h-1.4V44.7z M9.6,42h2.5
		c0.4,0,0.7,0.1,1,0.2c0.2,0.1,0.4,0.3,0.6,0.4c0.1,0.2,0.2,0.4,0.3,0.6c0,0.2,0.1,0.4,0.1,0.6c0,0.2,0,0.4-0.1,0.6
		c-0.1,0.2-0.1,0.4-0.3,0.6c-0.1,0.2-0.3,0.3-0.6,0.4c-0.3,0.1-0.6,0.2-1,0.2h-1.5v2.1h-1V42z"/>
	<path fill="#FFFFFF" d="M14.8,43.6h0.9v4h-0.9V43.6z M14.8,42h0.9v0.8h-0.9V42z"/>
	<path fill="#FFFFFF" d="M19.4,45.2c0-0.1,0-0.3-0.1-0.4c-0.1-0.1-0.1-0.2-0.2-0.3c-0.1-0.1-0.2-0.2-0.3-0.2
		c-0.1-0.1-0.3-0.1-0.4-0.1c-0.2,0-0.3,0-0.4,0.1c-0.1,0.1-0.2,0.1-0.3,0.2c-0.1,0.1-0.2,0.2-0.2,0.3c-0.1,0.1-0.1,0.3-0.1,0.4H19.4
		z M17.3,45.8c0,0.2,0,0.3,0.1,0.5c0,0.1,0.1,0.3,0.2,0.4c0.1,0.1,0.2,0.2,0.3,0.3C18,47,18.2,47,18.4,47c0.3,0,0.5-0.1,0.6-0.2
		c0.2-0.1,0.3-0.3,0.4-0.5h0.8c0,0.2-0.1,0.4-0.2,0.6c-0.1,0.2-0.3,0.3-0.4,0.4c-0.2,0.1-0.3,0.2-0.5,0.3c-0.2,0.1-0.4,0.1-0.6,0.1
		c-0.3,0-0.6-0.1-0.8-0.2c-0.2-0.1-0.5-0.2-0.6-0.4c-0.2-0.2-0.3-0.4-0.4-0.7c-0.1-0.3-0.1-0.5-0.1-0.9c0-0.3,0-0.6,0.1-0.8
		c0.1-0.3,0.2-0.5,0.4-0.7c0.2-0.2,0.4-0.3,0.6-0.5c0.2-0.1,0.5-0.2,0.8-0.2c0.3,0,0.6,0.1,0.9,0.2c0.3,0.1,0.5,0.3,0.6,0.5
		c0.2,0.2,0.3,0.5,0.4,0.8c0.1,0.3,0.1,0.6,0.1,0.9H17.3z"/>
	<rect x="21" y="42" fill="#FFFFFF" width="0.9" height="5.6"/>
	<path fill="#FFFFFF" d="M23.2,46.2c0,0.2,0.1,0.4,0.2,0.6c0.1,0.2,0.2,0.3,0.4,0.4c0.2,0.1,0.4,0.2,0.6,0.2c0.3,0,0.5-0.1,0.7-0.2
		c0.2-0.1,0.3-0.2,0.4-0.4c0.1-0.2,0.2-0.3,0.2-0.6c0-0.2,0.1-0.4,0.1-0.6s0-0.4-0.1-0.6c0-0.2-0.1-0.4-0.2-0.6
		c-0.1-0.2-0.3-0.3-0.4-0.4c-0.2-0.1-0.4-0.2-0.7-0.2c-0.2,0-0.4,0-0.6,0.2c-0.2,0.1-0.3,0.2-0.4,0.4c-0.1,0.2-0.2,0.3-0.2,0.6
		c0,0.2-0.1,0.4-0.1,0.6S23.2,46,23.2,46.2 M25.9,47.6v-0.8h0c-0.1,0.1-0.1,0.2-0.2,0.4c-0.1,0.1-0.2,0.2-0.3,0.3
		c-0.1,0.1-0.3,0.1-0.4,0.2c-0.1,0-0.3,0.1-0.4,0.1c-0.3,0-0.6-0.1-0.8-0.2c-0.2-0.1-0.4-0.3-0.6-0.5c-0.2-0.2-0.3-0.4-0.3-0.7
		c-0.1-0.3-0.1-0.5-0.1-0.8c0-0.3,0-0.6,0.1-0.8c0.1-0.3,0.2-0.5,0.3-0.7c0.2-0.2,0.3-0.3,0.6-0.5c0.2-0.1,0.5-0.2,0.8-0.2
		c0.2,0,0.3,0,0.4,0.1c0.1,0,0.3,0.1,0.4,0.2c0.1,0.1,0.2,0.2,0.3,0.3c0.1,0.1,0.2,0.2,0.2,0.4h0V42h0.5v5.6H25.9z"/>
	<path fill="#FFFFFF" d="M30.1,44.8c-0.1-0.2-0.1-0.3-0.3-0.5c-0.1-0.1-0.2-0.2-0.4-0.3c-0.2-0.1-0.3-0.1-0.5-0.1
		c-0.2,0-0.4,0-0.5,0.1c-0.2,0.1-0.3,0.2-0.4,0.3c-0.1,0.1-0.2,0.3-0.3,0.5c-0.1,0.2-0.1,0.4-0.1,0.5h2.6
		C30.2,45.1,30.2,44.9,30.1,44.8 M27.7,46.3c0,0.2,0.1,0.4,0.2,0.5c0.1,0.2,0.2,0.3,0.4,0.4c0.2,0.1,0.4,0.2,0.6,0.2
		c0.4,0,0.6-0.1,0.8-0.3c0.2-0.2,0.3-0.4,0.4-0.8h0.5c-0.1,0.5-0.3,0.8-0.6,1.1c-0.3,0.3-0.7,0.4-1.2,0.4c-0.3,0-0.6-0.1-0.8-0.2
		c-0.2-0.1-0.4-0.3-0.6-0.5c-0.1-0.2-0.3-0.4-0.3-0.7c-0.1-0.3-0.1-0.5-0.1-0.8c0-0.3,0-0.5,0.1-0.8c0.1-0.3,0.2-0.5,0.3-0.7
		c0.1-0.2,0.3-0.4,0.6-0.5c0.2-0.1,0.5-0.2,0.8-0.2c0.3,0,0.6,0.1,0.8,0.2c0.2,0.1,0.4,0.3,0.6,0.5c0.1,0.2,0.2,0.5,0.3,0.7
		c0.1,0.3,0.1,0.6,0.1,0.8h-3.1C27.6,45.9,27.7,46.1,27.7,46.3"/>
	<polygon fill="#FFFFFF" points="30.9,42 31.9,42 33.3,46.4 33.3,46.4 34.8,42 35.7,42 33.8,47.6 32.8,47.6 	"/>
	<path fill="#FFFFFF" d="M36.3,43.6h0.9v4h-0.9V43.6z M36.3,42h0.9v0.8h-0.9V42z"/>
	<path fill="#FFFFFF" d="M38.8,45.6c0,0.2,0,0.3,0.1,0.5c0,0.2,0.1,0.3,0.2,0.4c0.1,0.1,0.2,0.2,0.3,0.3C39.6,47,39.8,47,40,47
		c0.2,0,0.4,0,0.5-0.1c0.1-0.1,0.3-0.2,0.4-0.3c0.1-0.1,0.2-0.3,0.2-0.5c0-0.2,0.1-0.3,0.1-0.5c0-0.4-0.1-0.8-0.3-1
		c-0.2-0.3-0.5-0.4-0.8-0.4c-0.2,0-0.4,0-0.5,0.1c-0.1,0.1-0.3,0.2-0.4,0.3c-0.1,0.1-0.2,0.3-0.2,0.5C38.9,45.3,38.8,45.4,38.8,45.6
		 M42,47.6h-0.8v-0.5h0c-0.1,0.2-0.3,0.4-0.5,0.5c-0.2,0.1-0.5,0.2-0.7,0.2c-0.3,0-0.6-0.1-0.8-0.2c-0.2-0.1-0.4-0.3-0.6-0.5
		c-0.2-0.2-0.3-0.4-0.4-0.7c-0.1-0.3-0.1-0.5-0.1-0.8c0-0.4,0-0.7,0.1-0.9c0.1-0.3,0.2-0.5,0.4-0.7c0.2-0.2,0.4-0.3,0.6-0.4
		c0.2-0.1,0.4-0.1,0.6-0.1c0.1,0,0.3,0,0.4,0c0.1,0,0.3,0.1,0.4,0.1c0.1,0.1,0.2,0.1,0.3,0.2c0.1,0.1,0.2,0.2,0.3,0.3h0V42H42V47.6z
		"/>
	<path fill="#FFFFFF" d="M42.9,43.6h0.8v0.8h0c0-0.1,0.1-0.2,0.2-0.3c0.1-0.1,0.2-0.2,0.3-0.3c0.1-0.1,0.2-0.2,0.4-0.2
		c0.1-0.1,0.3-0.1,0.4-0.1c0.1,0,0.2,0,0.2,0c0,0,0.1,0,0.1,0v0.9c-0.1,0-0.1,0-0.2,0c-0.1,0-0.1,0-0.2,0c-0.2,0-0.3,0-0.4,0.1
		c-0.1,0.1-0.2,0.1-0.3,0.3c-0.1,0.1-0.2,0.3-0.2,0.4c-0.1,0.2-0.1,0.4-0.1,0.6v1.9h-0.9V43.6z"/>
	<path fill="#FFFFFF" d="M45.7,43.6h0.9v4h-0.9V43.6z M45.7,42h0.9v0.8h-0.9V42z"/>
	<path fill="#FFFFFF" d="M49.4,47c0.2,0,0.4,0,0.5-0.1c0.1-0.1,0.3-0.2,0.4-0.3c0.1-0.1,0.2-0.3,0.2-0.5c0-0.2,0.1-0.3,0.1-0.5
		c0-0.2,0-0.3-0.1-0.5c0-0.2-0.1-0.3-0.2-0.5c-0.1-0.1-0.2-0.2-0.4-0.3c-0.1-0.1-0.3-0.1-0.5-0.1c-0.2,0-0.4,0-0.5,0.1
		c-0.1,0.1-0.3,0.2-0.4,0.3c-0.1,0.1-0.2,0.3-0.2,0.5c0,0.2-0.1,0.3-0.1,0.5c0,0.2,0,0.4,0.1,0.5c0,0.2,0.1,0.3,0.2,0.5
		c0.1,0.1,0.2,0.2,0.4,0.3C49,47,49.2,47,49.4,47 M49.4,47.7c-0.3,0-0.6-0.1-0.9-0.2c-0.3-0.1-0.5-0.3-0.6-0.4
		c-0.2-0.2-0.3-0.4-0.4-0.7c-0.1-0.3-0.1-0.5-0.1-0.9c0-0.3,0-0.6,0.1-0.9c0.1-0.3,0.2-0.5,0.4-0.7c0.2-0.2,0.4-0.3,0.6-0.4
		c0.3-0.1,0.5-0.2,0.9-0.2c0.3,0,0.6,0.1,0.9,0.2c0.3,0.1,0.5,0.3,0.6,0.4c0.2,0.2,0.3,0.4,0.4,0.7c0.1,0.3,0.1,0.5,0.1,0.9
		c0,0.3,0,0.6-0.1,0.9c-0.1,0.3-0.2,0.5-0.4,0.7c-0.2,0.2-0.4,0.3-0.6,0.4C50,47.7,49.7,47.7,49.4,47.7"/>
	<path fill="#FFFFFF" d="M20.7,12h-0.8v22l0,0.1c0,0.1,0.1,0.4,0.4,0.7c0.4,0.4,1.1,0.8,2.6,1.2c1.5,0.3,3.7,0.6,7.1,0.6
		c4.6,0,7.2-0.4,8.7-0.9c1.5-0.5,1.9-1,2-1.2l0.1-0.2V12l-1.5-0.2l0.5,0.1l-0.4-0.3l-0.1,0.1l0.5,0.1l-0.4-0.3l0,0l0,0v0l0,0l0,0
		c0,0-0.4,0.4-1.7,0.7c-1.3,0.3-3.5,0.6-7.1,0.6c-5,0-7.5-0.4-8.6-0.8c-0.6-0.2-0.8-0.3-0.8-0.4l0,0l-0.2,0.2l0.2-0.1l0-0.1
		l-0.2,0.2l0.2-0.1L20.8,12h0.6l0-0.2L20.8,12h0.6H20.7l0.4,0.6c0.2-0.1,0.3-0.4,0.3-0.6H20.7l0.4,0.6L20.7,12v0.8
		c0.1,0,0.3,0,0.4-0.1L20.7,12v0.8V12h-0.8H20.7v-0.8c-0.1,0-0.3,0-0.4,0.1c-0.2,0.1-0.3,0.4-0.3,0.6c0,0.2,0.1,0.5,0.4,0.8
		c0.4,0.4,1.1,0.7,2.7,1c1.5,0.3,4,0.5,7.8,0.5c4.5,0,6.9-0.4,8.3-0.8c0.7-0.2,1.1-0.5,1.4-0.7c0.3-0.2,0.4-0.5,0.5-0.6L40.1,12
		h-0.8V34h0.8l-0.7-0.4l0.5,0.3l-0.4-0.3l0,0.1l0.5,0.3l-0.4-0.3l0.1,0.1l-0.1-0.1l0,0l0.1,0.1l-0.1-0.1c0,0,1.1,0.7-0.3,1
		c-1.4,0.3-5.2,1.3-9.1,1.3c-4.5,0-7.5-1-8.6-1.4c-0.5-0.2,0-0.8-0.1-0.9l0,0l0,0L21,33.8l0.4-0.1l0-0.1L21,33.8l0.4-0.1l-0.7,0.1
		h0.7V11.2h-0.7V12z"/>
	<path fill="#FFFFFF" d="M40.1,12h-0.7h0.4l-0.4-0.2L39.3,12h0.4l-0.4-0.2l0.2,0.1l-0.2-0.2l0,0l0.2,0.1l-0.2-0.2
		c0,0-0.4,0.2-0.9,0.4c-1.6,0.4-4.6,0.8-8.1,0.8c-2.6,0-5-0.2-6.7-0.5c-0.9-0.1-1.5-0.3-1.9-0.5c-0.2-0.1-0.3-0.2-0.4-0.2l0,0
		l-0.1,0.2l0.2-0.1l0-0.1l-0.1,0.2l0.2-0.1L20.9,12h0.4l0-0.2L20.9,12h0.4h-0.4l0.4,0.2l0.1-0.2h-0.4l0.4,0.2l-0.2-0.1l0.2,0.2l0,0
		l-0.2-0.1l0.2,0.2l0,0c0,0,0.4-0.2,0.9-0.4c1.6-0.4,4.7-0.8,8.1-0.8c2.6,0,5.1,0.2,6.7,0.5c0.8,0.1,1.5,0.3,1.9,0.5
		c0.2,0.1,0.3,0.2,0.4,0.2l0,0l0.1-0.2l-0.2,0.1l0,0.1l0.1-0.2l-0.2,0.1l0.4-0.2h-0.4l0,0.2l0.4-0.2h-0.4H40.1h0.8
		c0-0.2-0.1-0.4-0.2-0.6c-0.2-0.3-0.4-0.4-0.6-0.6c-0.4-0.2-0.9-0.4-1.5-0.5c-1.9-0.4-4.8-0.7-8.1-0.7c-2.7,0-5.2,0.2-7,0.5
		c-0.9,0.2-1.7,0.3-2.2,0.6c-0.3,0.1-0.5,0.2-0.8,0.4c-0.1,0.1-0.2,0.2-0.3,0.4c-0.1,0.1-0.2,0.3-0.2,0.6c0,0.2,0.1,0.4,0.2,0.6
		c0.2,0.3,0.4,0.4,0.6,0.6c0.4,0.2,0.9,0.4,1.5,0.5c1.9,0.4,4.8,0.7,8.1,0.7c2.7,0,5.2-0.2,7-0.5c0.9-0.2,1.6-0.3,2.2-0.6
		c0.3-0.1,0.5-0.2,0.8-0.4c0.1-0.1,0.2-0.2,0.3-0.4c0.1-0.1,0.2-0.3,0.2-0.6H40.1z"/>
	<rect x="33.3" y="13.6" fill="#FFFFFF" width="1.5" height="21.9"/>
	<rect x="25.3" y="13.6" fill="#FFFFFF" width="1.5" height="21.9"/>
</g>
<g>
	<path fill="#FFFFFF" d="M30.5,20c-3.6,0-7.2-0.7-10.6-2.2v1.7c3.4,1.3,7,2,10.6,2c3.5,0,7-0.6,10.4-1.9v-1.7
		C37.6,19.3,34,20,30.5,20z"/>
	<path fill="#FFFFFF" d="M30.5,28c-3.6,0-7.2-0.7-10.6-2.2v1.7c3.4,1.3,7,2,10.6,2c3.5,0,7-0.6,10.4-1.9v-1.7
		C37.6,27.3,34,28,30.5,28z"/>
	<path fill="#FFFFFF" d="M40.9,35v-1.7c-3.3,1.4-6.8,2.1-10.4,2.1c-3.6,0-7.2-0.7-10.6-2.2v1.7c3.4,1.3,7,2,10.6,2
		C34,36.9,37.5,36.2,40.9,35z"/>
</g>
</svg>
