<?xml version="1.0" encoding="utf-8"?>
<!-- Generator: Adobe Illustrator 17.0.0, SVG Export Plug-In . SVG Version: 6.00 Build 0)  -->
<!DOCTYPE svg PUBLIC "-//W3C//DTD SVG 1.1 Tiny//EN" "http://www.w3.org/Graphics/SVG/1.1/DTD/svg11-tiny.dtd" [
        <!ENTITY ns_flows "http://ns.adobe.com/Flows/1.0/">
        <!ENTITY ns_extend "http://ns.adobe.com/Extensibility/1.0/">
        <!ENTITY ns_ai "http://ns.adobe.com/AdobeIllustrator/10.0/">
        <!ENTITY ns_graphs "http://ns.adobe.com/Graphs/1.0/">
        ]>
<svg version="1.1" baseProfile="tiny" id="Layer_1"
	 xmlns="http://www.w3.org/2000/svg"
	 x="0px" y="0px" width="57.9px" height="58.5px" viewBox="0 0 57.9 58.5" xml:space="preserve">
<g>
	<path fill="#00937D" d="M58.7-0.4h-58v54.5c0,2.3,1.9,4.2,4.2,4.2h49.7c2.3,0,4.2-1.9,4.2-4.2V-0.4z"/>
	<polygon fill="#FFFFFF" points="18.1,41.5 22.2,41.5 22.2,42.3 19.1,42.3 19.1,43.8 22,43.8 22,44.6 19.1,44.6 19.1,46.2 
		22.2,46.2 22.2,47.1 18.1,47.1 	"/>
	<polygon fill="#FFFFFF" points="23,41.5 23.9,41.5 23.9,44.7 25.5,43 26.6,43 25,44.5 26.8,47.1 25.7,47.1 24.4,45.1 23.9,45.6 
		23.9,47.1 23,47.1 	"/>
	<path fill="#FFFFFF" d="M29,46.5c0.2,0,0.4,0,0.5-0.1c0.1-0.1,0.3-0.2,0.4-0.3c0.1-0.1,0.2-0.3,0.2-0.5c0-0.2,0.1-0.3,0.1-0.5
		c0-0.2,0-0.3-0.1-0.5c0-0.2-0.1-0.3-0.2-0.5c-0.1-0.1-0.2-0.2-0.4-0.3c-0.1-0.1-0.3-0.1-0.5-0.1c-0.2,0-0.4,0-0.5,0.1
		c-0.1,0.1-0.3,0.2-0.4,0.3c-0.1,0.1-0.2,0.3-0.2,0.5c0,0.2-0.1,0.3-0.1,0.5c0,0.2,0,0.4,0.1,0.5c0,0.2,0.1,0.3,0.2,0.5
		c0.1,0.1,0.2,0.2,0.4,0.3C28.7,46.4,28.8,46.5,29,46.5 M29,47.2c-0.3,0-0.6-0.1-0.9-0.2c-0.3-0.1-0.5-0.3-0.6-0.4
		c-0.2-0.2-0.3-0.4-0.4-0.7C27,45.6,27,45.4,27,45c0-0.3,0-0.6,0.1-0.9c0.1-0.3,0.2-0.5,0.4-0.7c0.2-0.2,0.4-0.3,0.6-0.4
		c0.3-0.1,0.5-0.2,0.9-0.2c0.3,0,0.6,0.1,0.9,0.2c0.3,0.1,0.5,0.3,0.6,0.4c0.2,0.2,0.3,0.4,0.4,0.7c0.1,0.3,0.1,0.5,0.1,0.9
		c0,0.3,0,0.6-0.1,0.9c-0.1,0.3-0.2,0.5-0.4,0.7c-0.2,0.2-0.4,0.3-0.6,0.4C29.7,47.1,29.4,47.2,29,47.2"/>
	<path fill="#FFFFFF" d="M31.8,43h0.8v0.6l0,0c0.1-0.2,0.3-0.4,0.5-0.5c0.2-0.1,0.5-0.2,0.7-0.2c0.4,0,0.8,0.1,1.1,0.3
		c0.3,0.2,0.4,0.6,0.4,1v2.8h-0.9v-2.6c0-0.3-0.1-0.6-0.2-0.7c-0.1-0.1-0.3-0.2-0.6-0.2c-0.2,0-0.3,0-0.4,0.1
		c-0.1,0.1-0.2,0.1-0.3,0.2c-0.1,0.1-0.2,0.2-0.2,0.3c0,0.1-0.1,0.3-0.1,0.4v2.4h-0.9V43z"/>
	<path fill="#FFFFFF" d="M38.9,45c-0.1,0.1-0.3,0.1-0.5,0.2c-0.2,0-0.4,0-0.6,0.1c-0.1,0-0.2,0-0.3,0.1c-0.1,0-0.2,0.1-0.2,0.1
		c-0.1,0-0.1,0.1-0.2,0.2c0,0.1-0.1,0.2-0.1,0.3c0,0.1,0,0.2,0.1,0.3c0.1,0.1,0.1,0.1,0.2,0.2c0.1,0,0.2,0.1,0.3,0.1
		c0.1,0,0.2,0,0.3,0c0.1,0,0.2,0,0.3,0c0.1,0,0.2-0.1,0.3-0.1c0.1-0.1,0.2-0.1,0.3-0.2c0.1-0.1,0.1-0.2,0.1-0.4V45z M39.8,46.2
		c0,0.1,0,0.2,0,0.2c0,0,0.1,0.1,0.2,0.1h0.1c0,0,0.1,0,0.1,0v0.6c0,0-0.1,0-0.1,0c-0.1,0-0.1,0-0.2,0c-0.1,0-0.1,0-0.2,0
		c-0.1,0-0.1,0-0.1,0c-0.2,0-0.3,0-0.5-0.1C39,47,39,46.9,38.9,46.7c-0.2,0.2-0.4,0.3-0.7,0.4c-0.3,0.1-0.5,0.1-0.7,0.1
		c-0.2,0-0.4,0-0.5-0.1c-0.2-0.1-0.3-0.1-0.4-0.2c-0.1-0.1-0.2-0.2-0.3-0.4c-0.1-0.1-0.1-0.3-0.1-0.5c0-0.2,0-0.5,0.1-0.6
		c0.1-0.2,0.2-0.3,0.4-0.4c0.1-0.1,0.3-0.2,0.5-0.2c0.2,0,0.4-0.1,0.6-0.1c0.2,0,0.3-0.1,0.5-0.1c0.1,0,0.3,0,0.4-0.1
		c0.1,0,0.2-0.1,0.3-0.1c0.1-0.1,0.1-0.2,0.1-0.3c0-0.1,0-0.2-0.1-0.3c-0.1-0.1-0.1-0.1-0.2-0.2c-0.1,0-0.2-0.1-0.3-0.1
		c-0.1,0-0.2,0-0.3,0c-0.3,0-0.5,0.1-0.6,0.2c-0.2,0.1-0.3,0.3-0.3,0.5h-0.9c0-0.3,0.1-0.5,0.2-0.7c0.1-0.2,0.3-0.3,0.4-0.4
		c0.2-0.1,0.4-0.2,0.6-0.2c0.2,0,0.4-0.1,0.7-0.1c0.2,0,0.4,0,0.6,0.1c0.2,0,0.4,0.1,0.5,0.2c0.2,0.1,0.3,0.2,0.4,0.4
		c0.1,0.2,0.1,0.3,0.1,0.5V46.2z"/>
	<rect x="40.7" y="41.5" fill="#FFFFFF" width="0.9" height="5.6"/>
</g>
<g>
	<path fill="#FFFFFF" d="M29.9,17.2c-4.7,0-9.3-1.2-13.5-3.6v1.9c4.2,2.1,8.9,3.2,13.5,3.2c4.6,0,9.3-1.1,13.5-3.2v-1.9
		C39.2,16,34.5,17.2,29.9,17.2z"/>
	<path fill="#FFFFFF" d="M29.9,25.1c-4.7,0-9.3-1.2-13.5-3.6v1.9c4.2,2.1,8.9,3.2,13.5,3.2c4.6,0,9.3-1.1,13.5-3.2v-1.9
		C39.2,23.9,34.5,25.1,29.9,25.1z"/>
	<path fill="#FFFFFF" d="M43.3,31.3v-1.9c-4.2,2.4-8.8,3.5-13.5,3.5c-4.7,0-9.3-1.2-13.5-3.6v1.9c4.2,2.1,8.9,3.2,13.5,3.2
		C34.5,34.6,39.1,33.5,43.3,31.3z"/>
</g>
</svg>
