<?xml version="1.0" encoding="utf-8"?>
<!-- Generator: Adobe Illustrator 17.0.0, SVG Export Plug-In . SVG Version: 6.00 Build 0)  -->
<!DOCTYPE svg PUBLIC "-//W3C//DTD SVG 1.1 Tiny//EN" "http://www.w3.org/Graphics/SVG/1.1/DTD/svg11-tiny.dtd" [
        <!ENTITY ns_flows "http://ns.adobe.com/Flows/1.0/">
        <!ENTITY ns_extend "http://ns.adobe.com/Extensibility/1.0/">
        <!ENTITY ns_ai "http://ns.adobe.com/AdobeIllustrator/10.0/">
        <!ENTITY ns_graphs "http://ns.adobe.com/Graphs/1.0/">
        ]>
<svg version="1.1" baseProfile="tiny" id="Layer_1"
	 xmlns="http://www.w3.org/2000/svg"
	 x="0px" y="0px" width="57.9px" height="58.5px" viewBox="0 0 57.9 58.5" xml:space="preserve">
<g>
	<path fill="#5CBB68" d="M58.4,0.3H0.6v54.2c0,2.3,1.9,4.1,4.1,4.1h49.5c2.3,0,4.1-1.9,4.1-4.1V0.3z"/>
	<polygon fill="#FFFFFF" points="6.4,42 10.3,42 10.3,42.9 7.4,42.9 7.4,44.3 9.9,44.3 9.9,45.1 7.4,45.1 7.4,47.6 6.4,47.6 	"/>
	<path fill="#FFFFFF" d="M10.9,43.5h0.8v0.8h0c0-0.1,0.1-0.2,0.2-0.3c0.1-0.1,0.2-0.2,0.3-0.3c0.1-0.1,0.2-0.2,0.4-0.2
		c0.1-0.1,0.3-0.1,0.4-0.1c0.1,0,0.2,0,0.2,0c0,0,0.1,0,0.1,0v0.9c-0.1,0-0.1,0-0.2,0c-0.1,0-0.1,0-0.2,0c-0.2,0-0.3,0-0.4,0.1
		c-0.1,0.1-0.2,0.1-0.3,0.3c-0.1,0.1-0.2,0.3-0.2,0.4c-0.1,0.2-0.1,0.4-0.1,0.6v1.9h-0.9V43.5z"/>
	<path fill="#FFFFFF" d="M16.3,45.2c0-0.1,0-0.3-0.1-0.4c0-0.1-0.1-0.2-0.2-0.3c-0.1-0.1-0.2-0.2-0.3-0.2c-0.1-0.1-0.3-0.1-0.4-0.1
		c-0.2,0-0.3,0-0.4,0.1c-0.1,0.1-0.2,0.1-0.3,0.2c-0.1,0.1-0.2,0.2-0.2,0.3c-0.1,0.1-0.1,0.3-0.1,0.4H16.3z M14.2,45.8
		c0,0.2,0,0.3,0.1,0.5c0,0.1,0.1,0.3,0.2,0.4c0.1,0.1,0.2,0.2,0.3,0.3C15,47,15.1,47,15.3,47c0.3,0,0.5-0.1,0.6-0.2
		c0.2-0.1,0.3-0.3,0.4-0.5h0.8c0,0.2-0.1,0.4-0.2,0.6c-0.1,0.2-0.3,0.3-0.4,0.4c-0.2,0.1-0.3,0.2-0.5,0.3c-0.2,0.1-0.4,0.1-0.6,0.1
		c-0.3,0-0.6-0.1-0.8-0.2c-0.2-0.1-0.5-0.2-0.6-0.4c-0.2-0.2-0.3-0.4-0.4-0.7c-0.1-0.3-0.1-0.5-0.1-0.9c0-0.3,0-0.6,0.1-0.8
		c0.1-0.3,0.2-0.5,0.4-0.7c0.2-0.2,0.4-0.4,0.6-0.5c0.2-0.1,0.5-0.2,0.8-0.2c0.3,0,0.6,0.1,0.9,0.2c0.3,0.1,0.5,0.3,0.6,0.5
		c0.2,0.2,0.3,0.5,0.4,0.8c0.1,0.3,0.1,0.6,0.1,0.9H14.2z"/>
	<path fill="#FFFFFF" d="M17.9,43.5h0.8v0.6l0,0c0.1-0.2,0.3-0.4,0.5-0.5c0.2-0.1,0.5-0.2,0.7-0.2c0.4,0,0.8,0.1,1,0.3
		c0.3,0.2,0.4,0.6,0.4,1v2.8h-0.9v-2.5c0-0.3-0.1-0.6-0.2-0.7c-0.1-0.1-0.3-0.2-0.6-0.2c-0.2,0-0.3,0-0.4,0.1s-0.2,0.1-0.3,0.2
		c-0.1,0.1-0.1,0.2-0.2,0.3c0,0.1-0.1,0.3-0.1,0.4v2.4h-0.9V43.5z"/>
	<path fill="#FFFFFF" d="M22,43.5h0.7v-1.2h0.9v1.2h0.8v0.7h-0.8v2.2c0,0.1,0,0.2,0,0.2c0,0.1,0,0.1,0.1,0.2c0,0,0.1,0.1,0.1,0.1
		s0.1,0,0.2,0c0.1,0,0.1,0,0.2,0c0.1,0,0.1,0,0.2,0v0.7c-0.1,0-0.2,0-0.3,0c-0.1,0-0.2,0-0.3,0c-0.2,0-0.4,0-0.6-0.1
		c-0.1,0-0.3-0.1-0.3-0.2c-0.1-0.1-0.1-0.2-0.2-0.3c0-0.1,0-0.3-0.1-0.4v-2.4H22V43.5z"/>
	<path fill="#FFFFFF" d="M27.8,45.2c0-0.1,0-0.3-0.1-0.4c0-0.1-0.1-0.2-0.2-0.3c-0.1-0.1-0.2-0.2-0.3-0.2c-0.1-0.1-0.3-0.1-0.4-0.1
		c-0.2,0-0.3,0-0.4,0.1c-0.1,0.1-0.2,0.1-0.3,0.2c-0.1,0.1-0.2,0.2-0.2,0.3c-0.1,0.1-0.1,0.3-0.1,0.4H27.8z M25.7,45.8
		c0,0.2,0,0.3,0.1,0.5c0,0.1,0.1,0.3,0.2,0.4c0.1,0.1,0.2,0.2,0.3,0.3c0.1,0.1,0.3,0.1,0.5,0.1c0.3,0,0.5-0.1,0.6-0.2
		c0.2-0.1,0.3-0.3,0.4-0.5h0.8c0,0.2-0.1,0.4-0.2,0.6c-0.1,0.2-0.3,0.3-0.4,0.4c-0.2,0.1-0.3,0.2-0.5,0.3c-0.2,0.1-0.4,0.1-0.6,0.1
		c-0.3,0-0.6-0.1-0.8-0.2c-0.2-0.1-0.5-0.2-0.6-0.4c-0.2-0.2-0.3-0.4-0.4-0.7c-0.1-0.3-0.1-0.5-0.1-0.9c0-0.3,0-0.6,0.1-0.8
		c0.1-0.3,0.2-0.5,0.4-0.7c0.2-0.2,0.4-0.4,0.6-0.5c0.2-0.1,0.5-0.2,0.8-0.2c0.3,0,0.6,0.1,0.9,0.2c0.3,0.1,0.5,0.3,0.6,0.5
		c0.2,0.2,0.3,0.5,0.4,0.8c0.1,0.3,0.1,0.6,0.1,0.9H25.7z"/>
	<rect x="29.5" y="42" fill="#FFFFFF" width="0.5" height="5.6"/>
	<path fill="#FFFFFF" d="M31.6,43.6v0.7h0c0.1-0.2,0.3-0.4,0.5-0.6c0.2-0.2,0.5-0.2,0.8-0.2c0.3,0,0.5,0,0.7,0.1
		c0.2,0.1,0.3,0.2,0.5,0.3c0.1,0.1,0.2,0.3,0.2,0.5c0,0.2,0.1,0.4,0.1,0.7v2.6h-0.5v-2.5c0-0.2,0-0.3,0-0.5c0-0.1-0.1-0.3-0.2-0.4
		c-0.1-0.1-0.2-0.2-0.3-0.3c-0.1-0.1-0.3-0.1-0.5-0.1s-0.4,0-0.5,0.1c-0.2,0.1-0.3,0.2-0.4,0.3c-0.1,0.1-0.2,0.3-0.2,0.4
		c-0.1,0.2-0.1,0.4-0.1,0.6v2.4h-0.5v-4H31.6z"/>
	<path fill="#FFFFFF" d="M36.9,43.6V44h-0.8v2.7c0,0.2,0,0.3,0.1,0.4c0,0.1,0.2,0.1,0.3,0.2c0.1,0,0.3,0,0.4,0v0.4
		c-0.1,0-0.1,0-0.2,0c-0.1,0-0.1,0-0.2,0c-0.3,0-0.6-0.1-0.7-0.2c-0.1-0.1-0.2-0.4-0.2-0.7V44h-0.7v-0.4h0.7v-1.2h0.5v1.2H36.9z"/>
	<path fill="#FFFFFF" d="M40.4,44.8c-0.1-0.2-0.1-0.3-0.3-0.5c-0.1-0.1-0.2-0.2-0.4-0.3c-0.2-0.1-0.3-0.1-0.5-0.1
		c-0.2,0-0.4,0-0.5,0.1c-0.2,0.1-0.3,0.2-0.4,0.3c-0.1,0.1-0.2,0.3-0.3,0.5c-0.1,0.2-0.1,0.4-0.1,0.5h2.6
		C40.5,45.1,40.5,44.9,40.4,44.8 M38,46.3c0,0.2,0.1,0.4,0.2,0.5c0.1,0.2,0.2,0.3,0.4,0.4c0.2,0.1,0.4,0.1,0.6,0.1
		c0.4,0,0.6-0.1,0.8-0.3c0.2-0.2,0.3-0.4,0.4-0.8H41c-0.1,0.5-0.3,0.8-0.6,1.1c-0.3,0.3-0.7,0.4-1.2,0.4c-0.3,0-0.6-0.1-0.8-0.2
		c-0.2-0.1-0.4-0.3-0.6-0.5c-0.1-0.2-0.3-0.4-0.3-0.7c-0.1-0.3-0.1-0.5-0.1-0.8c0-0.3,0-0.5,0.1-0.8c0.1-0.3,0.2-0.5,0.3-0.7
		c0.1-0.2,0.3-0.4,0.6-0.5c0.2-0.1,0.5-0.2,0.8-0.2c0.3,0,0.6,0.1,0.8,0.2c0.2,0.1,0.4,0.3,0.6,0.5c0.1,0.2,0.2,0.5,0.3,0.7
		c0.1,0.3,0.1,0.6,0.1,0.8h-3.1C37.9,45.9,37.9,46.1,38,46.3"/>
	<path fill="#FFFFFF" d="M43.8,47c0.2-0.1,0.3-0.2,0.4-0.4c0.1-0.1,0.2-0.3,0.2-0.5c0.1-0.2,0.1-0.4,0.1-0.6c0-0.2,0-0.4-0.1-0.6
		c0-0.2-0.1-0.4-0.2-0.5c-0.1-0.2-0.2-0.3-0.4-0.4c-0.2-0.1-0.4-0.1-0.6-0.1c-0.2,0-0.4,0-0.6,0.1c-0.2,0.1-0.3,0.2-0.4,0.4
		c-0.1,0.2-0.2,0.3-0.2,0.5c-0.1,0.2-0.1,0.4-0.1,0.6c0,0.2,0,0.4,0.1,0.6c0.1,0.2,0.1,0.4,0.2,0.5c0.1,0.1,0.2,0.3,0.4,0.4
		c0.2,0.1,0.4,0.1,0.6,0.1C43.5,47.1,43.7,47.1,43.8,47 M45,48.1c-0.1,0.2-0.2,0.4-0.3,0.6c-0.1,0.2-0.3,0.3-0.6,0.4
		c-0.2,0.1-0.5,0.1-0.8,0.1c-0.2,0-0.4,0-0.6-0.1c-0.2,0-0.4-0.1-0.5-0.2c-0.2-0.1-0.3-0.2-0.4-0.4c-0.1-0.2-0.2-0.3-0.2-0.6h0.5
		c0,0.2,0.1,0.3,0.2,0.4c0.1,0.1,0.2,0.2,0.3,0.2c0.1,0.1,0.2,0.1,0.4,0.1c0.1,0,0.3,0,0.4,0c0.5,0,0.8-0.1,1-0.4
		c0.2-0.3,0.3-0.6,0.3-1.1v-0.5h0c-0.1,0.2-0.3,0.5-0.5,0.6c-0.2,0.2-0.5,0.2-0.8,0.2c-0.3,0-0.6-0.1-0.8-0.2
		c-0.2-0.1-0.4-0.3-0.6-0.4c-0.1-0.2-0.3-0.4-0.3-0.7c-0.1-0.3-0.1-0.5-0.1-0.8c0-0.3,0-0.5,0.1-0.8c0.1-0.2,0.2-0.5,0.4-0.6
		c0.2-0.2,0.3-0.3,0.6-0.4c0.2-0.1,0.5-0.2,0.8-0.2c0.2,0,0.3,0,0.4,0.1c0.1,0,0.3,0.1,0.4,0.2c0.1,0.1,0.2,0.2,0.3,0.3
		c0.1,0.1,0.2,0.2,0.2,0.3h0v-0.7h0.5v3.7C45.1,47.6,45,47.8,45,48.1"/>
	<path fill="#FFFFFF" d="M46.5,43.6v0.9h0c0.1-0.3,0.3-0.6,0.6-0.8c0.3-0.2,0.6-0.3,0.9-0.2V44c-0.2,0-0.4,0-0.6,0.1
		c-0.2,0.1-0.3,0.2-0.5,0.3c-0.1,0.1-0.2,0.3-0.3,0.5c-0.1,0.2-0.1,0.4-0.1,0.6v2.2H46v-4H46.5z"/>
	<path fill="#FFFFFF" d="M51,45.4c0,0.1-0.1,0.1-0.2,0.1c-0.1,0-0.2,0-0.2,0.1c-0.2,0-0.4,0.1-0.6,0.1c-0.2,0-0.4,0.1-0.6,0.1
		c-0.2,0.1-0.3,0.1-0.4,0.2c-0.1,0.1-0.2,0.3-0.2,0.5c0,0.1,0,0.2,0.1,0.3c0,0.1,0.1,0.2,0.2,0.2c0.1,0.1,0.2,0.1,0.3,0.2
		c0.1,0,0.2,0.1,0.3,0.1c0.2,0,0.4,0,0.5-0.1c0.2-0.1,0.3-0.1,0.5-0.2c0.1-0.1,0.2-0.2,0.3-0.4C51,46.4,51,46.2,51,46L51,45.4
		L51,45.4z M48.6,44.2c0.1-0.2,0.2-0.3,0.3-0.4c0.1-0.1,0.3-0.2,0.5-0.2c0.2-0.1,0.4-0.1,0.6-0.1c0.2,0,0.4,0,0.5,0
		c0.2,0,0.3,0.1,0.5,0.2c0.1,0.1,0.3,0.2,0.3,0.4c0.1,0.2,0.1,0.4,0.1,0.7v2.1c0,0.2,0.1,0.3,0.3,0.3c0.1,0,0.1,0,0.2,0v0.4
		c-0.1,0-0.1,0-0.2,0c0,0-0.1,0-0.2,0c-0.1,0-0.2,0-0.3-0.1c-0.1,0-0.1-0.1-0.2-0.1c0-0.1-0.1-0.1-0.1-0.2c0-0.1,0-0.2,0-0.3h0
		c-0.1,0.1-0.2,0.2-0.3,0.3c-0.1,0.1-0.2,0.2-0.3,0.3c-0.1,0.1-0.2,0.1-0.4,0.2c-0.1,0-0.3,0.1-0.5,0.1c-0.2,0-0.4,0-0.5-0.1
		c-0.2,0-0.3-0.1-0.4-0.2c-0.1-0.1-0.2-0.2-0.3-0.4c-0.1-0.1-0.1-0.3-0.1-0.5c0-0.3,0.1-0.5,0.2-0.7c0.1-0.2,0.3-0.3,0.5-0.4
		c0.2-0.1,0.4-0.1,0.7-0.2c0.3,0,0.5-0.1,0.8-0.1c0.1,0,0.2,0,0.3,0c0.1,0,0.1,0,0.2-0.1c0.1,0,0.1-0.1,0.1-0.2c0-0.1,0-0.2,0-0.3
		c0-0.2,0-0.3-0.1-0.4c-0.1-0.1-0.1-0.2-0.2-0.3c-0.1-0.1-0.2-0.1-0.3-0.1c-0.1,0-0.3,0-0.4,0c-0.3,0-0.6,0.1-0.8,0.2
		c-0.2,0.1-0.3,0.4-0.3,0.7h-0.5C48.4,44.6,48.5,44.4,48.6,44.2"/>
	<rect x="52.5" y="42" fill="#FFFFFF" width="0.5" height="5.6"/>
	<path fill="#FFFFFF" d="M16.7,34.2L18,36V12.5l0.3-0.3h24.1L41,10.3H16.7V34.2z M18.1,37l-1.9-2.5l-0.1-0.2V10l0.3-0.3h24.7
		l0.2,0.1l1.9,2.5L43,12.8H18.5v24.1L18.1,37z"/>
	<path fill="#FFFFFF" d="M30.9,20.5h11.3v-7H40v5.1h-9.1V20.5z M42.8,21.1H30.3v-3h9.1V13h3.3V21.1z"/>
	<path fill="#FFFFFF" d="M19,20.5h11.3v-7h-2.3v5.1H19V20.5z M30.9,21.1H18.5v-3h9.1V13h3.3V21.1z"/>
	<path fill="#FFFFFF" d="M30.9,28.1h11.3v-7H40v5.1h-9.1V28.1z M42.8,28.7H30.3v-3h9.1v-5.1h3.3V28.7z"/>
	<path fill="#FFFFFF" d="M19,28.1h11.3v-7h-2.3v5.1H19V28.1z M30.9,28.7H18.5v-3h9.1v-5.1h3.3V28.7z"/>
	<path fill="#FFFFFF" d="M30.9,36.2h11.3v-7H40v5.1h-9.1V36.2z M42.8,36.7H30.3v-3h9.1v-5.1h3.3V36.7z"/>
	<path fill="#FFFFFF" d="M19,36.2h11.3v-7h-2.3v5.1H19V36.2z M30.9,36.7H18.5v-3h9.1v-5.1h3.3V36.7z"/>
	<path fill="#FFFFFF" d="M31.1,13.8H42v6.4H31.1V13.8z M42,27.9H31.1v-6.4H42V27.9z M42,35.6H31.1v-6.4H42V35.6z M30.1,35.6H19.2
		v-6.4h10.9V35.6z M19.2,21.5h10.9v6.4H19.2V21.5z M19.2,13.8h10.9v6.4H19.2V13.8z M31.1,12.5h-0.9H18.3v7.7v1.3v6.4v1.3v7.7h11.9
		h0.9H43v-7.7v-1.3v-6.4v-1.3v-7.7H31.1z"/>
	<path fill="none" stroke="#FFFFFF" stroke-width="0.5491" stroke-miterlimit="10" d="M31.1,13.8H42v6.4H31.1V13.8z M42,27.9H31.1
		v-6.4H42V27.9z M42,35.6H31.1v-6.4H42V35.6z M30.1,35.6H19.2v-6.4h10.9V35.6z M19.2,21.5h10.9v6.4H19.2V21.5z M19.2,13.8h10.9v6.4
		H19.2V13.8z M31.1,12.5h-0.9H18.3v7.7v1.3v6.4v1.3v7.7h11.9h0.9H43v-7.7v-1.3v-6.4v-1.3v-7.7H31.1z"/>
</g>
</svg>
