<?xml version="1.0" encoding="utf-8"?>
<!-- Generator: Adobe Illustrator 17.0.0, SVG Export Plug-In . SVG Version: 6.00 Build 0)  -->
<!DOCTYPE svg PUBLIC "-//W3C//DTD SVG 1.1 Tiny//EN" "http://www.w3.org/Graphics/SVG/1.1/DTD/svg11-tiny.dtd" [
        <!ENTITY ns_flows "http://ns.adobe.com/Flows/1.0/">
        <!ENTITY ns_extend "http://ns.adobe.com/Extensibility/1.0/">
        <!ENTITY ns_ai "http://ns.adobe.com/AdobeIllustrator/10.0/">
        <!ENTITY ns_graphs "http://ns.adobe.com/Graphs/1.0/">
        ]>
<svg version="1.1" baseProfile="tiny" id="Layer_1"
	 xmlns="http://www.w3.org/2000/svg"
	 x="0px" y="0px" width="57.9px" height="58.5px" viewBox="0 0 57.9 58.5" xml:space="preserve">
<g>
	<path fill="#8587C1" d="M57.9,0H0v54.3c0,2.3,1.9,4.1,4.1,4.1h49.6c2.3,0,4.1-1.9,4.1-4.1V0z"/>
	<path fill="#FFFFFF" d="M16.1,45.1h1.7l-0.8-2.4h0L16.1,45.1z M16.4,41.8h1l2.2,5.6h-1L18,45.9h-2.2l-0.5,1.5h-1L16.4,41.8z"/>
	<path fill="#FFFFFF" d="M21.3,44.1c0.1,0,0.3,0,0.4,0c0.1,0,0.3-0.1,0.4-0.1c0.1-0.1,0.2-0.2,0.3-0.3c0.1-0.1,0.1-0.3,0.1-0.4
		c0-0.2-0.1-0.4-0.2-0.6c-0.2-0.1-0.4-0.2-0.6-0.2c-0.2,0-0.3,0-0.4,0.1c-0.1,0.1-0.2,0.1-0.3,0.3c-0.1,0.1-0.1,0.2-0.2,0.4
		c0,0.1-0.1,0.3,0,0.4h-0.9c0-0.3,0.1-0.5,0.1-0.7c0.1-0.2,0.2-0.4,0.4-0.6c0.2-0.2,0.3-0.3,0.6-0.4c0.2-0.1,0.5-0.1,0.7-0.1
		c0.2,0,0.4,0,0.6,0.1c0.2,0.1,0.4,0.2,0.6,0.3c0.2,0.1,0.3,0.3,0.4,0.5c0.1,0.2,0.1,0.4,0.1,0.6c0,0.3-0.1,0.5-0.2,0.7
		c-0.1,0.2-0.3,0.4-0.6,0.5v0c0.3,0.1,0.6,0.2,0.7,0.5c0.2,0.2,0.3,0.5,0.3,0.9c0,0.3-0.1,0.5-0.2,0.7c-0.1,0.2-0.2,0.4-0.4,0.5
		c-0.2,0.1-0.4,0.3-0.6,0.3c-0.2,0.1-0.5,0.1-0.7,0.1c-0.3,0-0.6,0-0.8-0.1c-0.2-0.1-0.4-0.2-0.6-0.4c-0.2-0.2-0.3-0.4-0.4-0.6
		c-0.1-0.2-0.1-0.5-0.1-0.8h0.9c0,0.3,0.1,0.6,0.2,0.8c0.2,0.2,0.4,0.3,0.8,0.3c0.3,0,0.5-0.1,0.7-0.3c0.2-0.2,0.3-0.4,0.3-0.7
		c0-0.2,0-0.4-0.1-0.5c-0.1-0.1-0.2-0.2-0.3-0.3c-0.1-0.1-0.3-0.1-0.5-0.1c-0.2,0-0.3,0-0.5,0V44.1z"/>
	<path fill="#FFFFFF" d="M26.1,46.7c0.2,0,0.4-0.1,0.5-0.2c0.1-0.1,0.2-0.3,0.3-0.5c0.1-0.2,0.1-0.4,0.2-0.7c0-0.3,0-0.5,0-0.8
		c0-0.3,0-0.6,0-0.8c0-0.3-0.1-0.5-0.2-0.7c-0.1-0.2-0.2-0.3-0.3-0.5c-0.1-0.1-0.3-0.2-0.5-0.2c-0.2,0-0.4,0.1-0.5,0.2
		c-0.1,0.1-0.2,0.3-0.3,0.5c-0.1,0.2-0.1,0.4-0.2,0.7c0,0.3,0,0.5,0,0.8c0,0.3,0,0.6,0,0.8c0,0.3,0.1,0.5,0.2,0.7
		c0.1,0.2,0.2,0.3,0.3,0.5C25.7,46.7,25.9,46.7,26.1,46.7 M26.1,41.8c0.4,0,0.7,0.1,1,0.3c0.2,0.2,0.4,0.4,0.6,0.7
		c0.1,0.3,0.2,0.6,0.3,0.9c0,0.3,0.1,0.7,0.1,1c0,0.3,0,0.6-0.1,1c-0.1,0.3-0.1,0.6-0.3,0.9c-0.1,0.3-0.3,0.5-0.6,0.7
		c-0.2,0.2-0.6,0.3-1,0.3c-0.4,0-0.7-0.1-1-0.3c-0.2-0.2-0.4-0.4-0.6-0.7c-0.1-0.3-0.2-0.6-0.3-0.9c-0.1-0.3-0.1-0.7-0.1-1
		c0-0.3,0-0.6,0.1-1c0-0.3,0.1-0.6,0.3-0.9c0.1-0.3,0.3-0.5,0.6-0.7C25.4,41.8,25.7,41.8,26.1,41.8"/>
	<polygon fill="#FFFFFF" points="29.4,41.8 32.7,46.5 32.7,46.5 32.7,41.8 33.2,41.8 33.2,47.4 32.6,47.4 29.4,42.6 29.3,42.6 
		29.3,47.4 28.8,47.4 28.8,41.8 	"/>
	<path fill="#FFFFFF" d="M37.1,44.5c-0.1-0.2-0.1-0.3-0.3-0.5c-0.1-0.1-0.2-0.2-0.4-0.3c-0.2-0.1-0.3-0.1-0.5-0.1
		c-0.2,0-0.4,0-0.5,0.1c-0.2,0.1-0.3,0.2-0.4,0.3c-0.1,0.1-0.2,0.3-0.3,0.5c-0.1,0.2-0.1,0.4-0.1,0.5h2.6
		C37.1,44.9,37.1,44.7,37.1,44.5 M34.6,46c0,0.2,0.1,0.4,0.2,0.5c0.1,0.2,0.2,0.3,0.4,0.4c0.2,0.1,0.4,0.1,0.6,0.1
		c0.4,0,0.6-0.1,0.8-0.3c0.2-0.2,0.3-0.4,0.4-0.8h0.5c-0.1,0.5-0.3,0.8-0.6,1.1c-0.3,0.3-0.7,0.4-1.2,0.4c-0.3,0-0.6-0.1-0.8-0.2
		c-0.2-0.1-0.4-0.3-0.6-0.5c-0.1-0.2-0.3-0.4-0.3-0.7c-0.1-0.3-0.1-0.5-0.1-0.8c0-0.3,0-0.5,0.1-0.8c0.1-0.3,0.2-0.5,0.3-0.7
		c0.1-0.2,0.3-0.4,0.6-0.5c0.2-0.1,0.5-0.2,0.8-0.2c0.3,0,0.6,0.1,0.8,0.2c0.2,0.1,0.4,0.3,0.6,0.5c0.1,0.2,0.2,0.5,0.3,0.7
		c0.1,0.3,0.1,0.6,0.1,0.8h-3.1C34.5,45.6,34.6,45.8,34.6,46"/>
	<polygon fill="#FFFFFF" points="38.4,43.3 39.5,46.8 39.5,46.8 40.5,43.3 41,43.3 42,46.8 42,46.8 43.1,43.3 43.6,43.3 42.3,47.4 
		41.7,47.4 40.7,44 40.7,44 39.7,47.4 39.2,47.4 37.9,43.3 	"/>
	<path fill="#FFFFFF" d="M31.1,16.7l-0.8,0V35l-13.4-3.5V14.2l14,3.2L31.1,16.7l-0.7,0L31.1,16.7l0.2-0.7l-15-3.4
		c-0.2,0-0.4,0-0.6,0.1c-0.2,0.1-0.3,0.3-0.3,0.6V32c0,0.3,0.3,0.6,0.7,0.7l14.8,3.9c0.2,0.1,0.4,0,0.6-0.1c0.2-0.1,0.3-0.3,0.4-0.6
		V16.7c-0.1-0.3-0.3-0.6-0.7-0.7"/>
	<path fill="#FFFFFF" d="M16.1,13.3l0.2,0.7L27,10.8l12.1,2.6l-8,2.5l-14.8-3.4L16.1,13.3l0.2,0.7L16.1,13.3L16,14l15,3.4l0.4,0
		L42.1,14c0.3-0.1,0.5-0.4,0.5-0.7c0-0.3-0.2-0.6-0.6-0.7L27.1,9.4l-0.4,0l-10.8,3.2c-0.3,0.1-0.5,0.4-0.5,0.7
		c0,0.3,0.2,0.6,0.6,0.7"/>
	<path fill="#FFFFFF" d="M26.2,10.1V28L16,31.3l0.4,1.4l10.7-3.5c0.3-0.1,0.5-0.4,0.6-0.7V10.1"/>
	<polyline fill="#FFFFFF" points="41.8,31.4 27,27.8 26.7,29.2 41.5,32.8 	"/>
	<path fill="#FFFFFF" d="M31.1,16.7l0.2,0.7l9.7-3.1v17.3l-9.1,3.3V16.7L31.1,16.7l0.2,0.7L31.1,16.7l-0.7,0v19.2
		c0,0.2,0.1,0.4,0.2,0.6c0.2,0.1,0.4,0.2,0.7,0.1l10.6-3.8c0.3-0.1,0.6-0.4,0.7-0.7V13.4c0-0.2-0.1-0.4-0.3-0.6
		c-0.2-0.1-0.4-0.2-0.6-0.1L30.9,16c-0.3,0.1-0.5,0.4-0.5,0.7"/>
</g>
</svg>
