<?xml version="1.0" encoding="utf-8"?>
<!-- Generator: Adobe Illustrator 17.0.0, SVG Export Plug-In . SVG Version: 6.00 Build 0)  -->
<!DOCTYPE svg PUBLIC "-//W3C//DTD SVG 1.1 Tiny//EN" "http://www.w3.org/Graphics/SVG/1.1/DTD/svg11-tiny.dtd" [
        <!ENTITY ns_flows "http://ns.adobe.com/Flows/1.0/">
        <!ENTITY ns_extend "http://ns.adobe.com/Extensibility/1.0/">
        <!ENTITY ns_ai "http://ns.adobe.com/AdobeIllustrator/10.0/">
        <!ENTITY ns_graphs "http://ns.adobe.com/Graphs/1.0/">
        ]>
<svg version="1.1" baseProfile="tiny" id="Layer_1"
	 xmlns="http://www.w3.org/2000/svg"
	 x="0px" y="0px" width="57.9px" height="58.5px" viewBox="0 0 57.9 58.5" xml:space="preserve">
<g>
	<g>
		<path fill="#8587C1" d="M58.6-0.4H0.4v54.6c0,2.3,1.9,4.2,4.2,4.2h49.8c2.3,0,4.2-1.9,4.2-4.2V-0.4z"/>
	</g>
	<g>
		<path fill="#FFFFFF" d="M24.9,42.4H26l2.3,6h-1.1l-0.6-1.6h-2.4l-0.6,1.6h-1.1L24.9,42.4z M24.5,46h1.8l-0.9-2.6h0L24.5,46z"/>
		<path fill="#FFFFFF" d="M32.6,47h-0.8v1.4h-0.9V47h-2.5V46l2.5-3.5h0.9v3.7h0.8V47z M29.2,46.2h1.8v-2.6h0L29.2,46.2z"/>
		<path fill="#FFFFFF" d="M35.2,42.4c0.4,0,0.8,0.1,1,0.3c0.3,0.2,0.5,0.4,0.6,0.7c0.1,0.3,0.2,0.6,0.3,1c0.1,0.4,0.1,0.7,0.1,1
			c0,0.3,0,0.7-0.1,1c-0.1,0.4-0.2,0.7-0.3,1c-0.1,0.3-0.4,0.5-0.6,0.7c-0.3,0.2-0.6,0.3-1,0.3c-0.4,0-0.8-0.1-1-0.3
			c-0.3-0.2-0.5-0.4-0.6-0.7c-0.1-0.3-0.2-0.6-0.3-1c-0.1-0.4-0.1-0.7-0.1-1c0-0.3,0-0.7,0.1-1c0.1-0.4,0.2-0.7,0.3-1
			c0.1-0.3,0.4-0.5,0.6-0.7C34.4,42.5,34.8,42.4,35.2,42.4z M35.2,47.7c0.2,0,0.4-0.1,0.5-0.2c0.1-0.1,0.2-0.3,0.3-0.5
			c0.1-0.2,0.1-0.4,0.2-0.7c0-0.3,0-0.6,0-0.9c0-0.3,0-0.6,0-0.9c0-0.3-0.1-0.5-0.2-0.7c-0.1-0.2-0.2-0.4-0.3-0.5
			c-0.1-0.1-0.3-0.2-0.5-0.2c-0.2,0-0.4,0.1-0.5,0.2c-0.1,0.1-0.2,0.3-0.3,0.5c-0.1,0.2-0.1,0.4-0.2,0.7c0,0.3-0.1,0.6-0.1,0.9
			c0,0.3,0,0.6,0.1,0.9c0,0.3,0.1,0.5,0.2,0.7c0.1,0.2,0.2,0.4,0.3,0.5C34.8,47.6,35,47.7,35.2,47.7z"/>
	</g>
	<g>
		
			<line fill="none" stroke="#FFFFFF" stroke-width="1.9088" stroke-linejoin="round" stroke-miterlimit="10" x1="21.2" y1="12.8" x2="21.2" y2="34.2"/>
	</g>
	<g>
		
			<line fill="none" stroke="#FFFFFF" stroke-width="1.9088" stroke-linejoin="round" stroke-miterlimit="10" x1="27.1" y1="12.8" x2="27.1" y2="34.2"/>
	</g>
	<g>
		
			<line fill="none" stroke="#FFFFFF" stroke-width="1.9088" stroke-linejoin="round" stroke-miterlimit="10" x1="33" y1="12.8" x2="33" y2="34.2"/>
	</g>
	<g>
		
			<line fill="none" stroke="#FFFFFF" stroke-width="1.9088" stroke-linejoin="round" stroke-miterlimit="10" x1="38.9" y1="12.8" x2="38.9" y2="34.2"/>
	</g>
</g>
</svg>
