<?xml version="1.0" encoding="utf-8"?>
<!-- Generator: Adobe Illustrator 17.0.0, SVG Export Plug-In . SVG Version: 6.00 Build 0)  -->
<!DOCTYPE svg PUBLIC "-//W3C//DTD SVG 1.1//EN" "http://www.w3.org/Graphics/SVG/1.1/DTD/svg11.dtd">
<svg version="1.1" id="Layer_1" xmlns="http://www.w3.org/2000/svg" xmlns:xlink="http://www.w3.org/1999/xlink" x="0px" y="0px"
	 width="57.9px" height="58.5px" viewBox="0 0 57.9 58.5" enable-background="new 0 0 57.9 58.5" xml:space="preserve">
<path fill="#87256B" d="M58.6,54.3V-0.4H0.3v54.7c0,2.3,1.9,4.2,4.2,4.2h49.9C56.7,58.5,58.6,56.6,58.6,54.3z"/>
<g>
	<path fill="#FFFFFF" d="M9.874,41.851h1.05l2.17,5.633h-1.057l-0.529-1.49H9.259l-0.528,1.49H7.714L9.874,41.851z M9.528,45.244
		h1.719l-0.843-2.422h-0.025L9.528,45.244z"/>
	<path fill="#FFFFFF" d="M13.527,41.851h0.9v5.633h-0.9V41.851z"/>
	<path fill="#FFFFFF" d="M14.995,43.406h0.679v-1.224h0.9v1.224h0.813v0.671h-0.813v2.177c0,0.095,0.004,0.177,0.012,0.245
		c0.008,0.068,0.026,0.126,0.055,0.173c0.029,0.048,0.072,0.083,0.129,0.107c0.058,0.025,0.137,0.035,0.237,0.035
		c0.063,0,0.126-0.001,0.19-0.004c0.064-0.002,0.126-0.01,0.19-0.027v0.694c-0.101,0.011-0.197,0.022-0.292,0.032
		c-0.095,0.01-0.193,0.016-0.291,0.016c-0.237,0-0.428-0.023-0.572-0.067c-0.146-0.045-0.259-0.111-0.341-0.199
		c-0.081-0.087-0.136-0.196-0.166-0.327c-0.028-0.131-0.045-0.28-0.05-0.449v-2.407h-0.679V43.406z"/>
	<path fill="#FFFFFF" d="M18.734,45.678c0,0.158,0.023,0.311,0.067,0.458c0.045,0.148,0.113,0.276,0.202,0.386
		c0.088,0.112,0.202,0.2,0.339,0.265c0.136,0.066,0.3,0.098,0.489,0.098c0.264,0,0.475-0.056,0.636-0.168
		c0.159-0.114,0.279-0.282,0.358-0.509h0.852c-0.047,0.221-0.128,0.418-0.244,0.592c-0.116,0.172-0.256,0.318-0.419,0.437
		c-0.164,0.118-0.346,0.208-0.548,0.268c-0.203,0.06-0.415,0.091-0.636,0.091c-0.32,0-0.604-0.054-0.851-0.158
		c-0.248-0.106-0.457-0.253-0.628-0.442c-0.171-0.19-0.299-0.415-0.386-0.678c-0.087-0.263-0.131-0.552-0.131-0.868
		c0-0.289,0.047-0.564,0.139-0.825c0.091-0.26,0.224-0.489,0.394-0.686c0.171-0.198,0.377-0.355,0.62-0.47
		c0.241-0.116,0.516-0.174,0.821-0.174c0.32,0,0.608,0.067,0.863,0.202c0.255,0.134,0.466,0.311,0.635,0.532
		c0.169,0.221,0.29,0.475,0.367,0.762c0.076,0.286,0.096,0.583,0.058,0.888H18.734z M20.834,45.086
		c-0.01-0.142-0.041-0.278-0.091-0.411c-0.049-0.131-0.118-0.245-0.204-0.343c-0.087-0.096-0.193-0.175-0.316-0.237
		c-0.123-0.06-0.262-0.089-0.414-0.089c-0.158,0-0.301,0.027-0.432,0.081c-0.128,0.056-0.238,0.132-0.331,0.229
		c-0.092,0.098-0.166,0.213-0.22,0.344c-0.055,0.131-0.086,0.274-0.092,0.426H20.834z"/>
	<path fill="#FFFFFF" d="M22.278,43.406h3.314v0.631l-2.335,2.738h2.455v0.71H22.12v-0.631l2.257-2.738h-2.099V43.406z"/>
	<path fill="#FFFFFF" d="M26.223,43.406h3.314v0.631l-2.335,2.738h2.454v0.71h-3.591v-0.631l2.257-2.738h-2.099V43.406z"/>
	<path fill="#FFFFFF" d="M33.726,46.578c0,0.11,0.015,0.189,0.044,0.236c0.029,0.048,0.086,0.071,0.169,0.071
		c0.027,0,0.059,0,0.095,0c0.038,0,0.079-0.004,0.126-0.015v0.623c-0.032,0.011-0.073,0.023-0.122,0.037
		c-0.049,0.012-0.102,0.024-0.154,0.035c-0.052,0.011-0.104,0.019-0.158,0.024c-0.051,0.005-0.096,0.008-0.133,0.008
		c-0.184,0-0.337-0.038-0.458-0.112c-0.12-0.074-0.2-0.202-0.236-0.386c-0.179,0.173-0.399,0.299-0.659,0.378
		c-0.261,0.079-0.512,0.119-0.753,0.119c-0.185,0-0.36-0.026-0.529-0.075c-0.169-0.051-0.317-0.123-0.445-0.221
		c-0.128-0.098-0.232-0.221-0.308-0.371c-0.076-0.15-0.114-0.325-0.114-0.524c0-0.253,0.045-0.458,0.137-0.616
		c0.093-0.158,0.213-0.281,0.363-0.371c0.15-0.088,0.318-0.154,0.505-0.193c0.188-0.038,0.375-0.069,0.564-0.091
		c0.163-0.031,0.318-0.053,0.466-0.067c0.147-0.013,0.276-0.035,0.391-0.067c0.113-0.031,0.201-0.08,0.268-0.146
		c0.065-0.066,0.099-0.164,0.099-0.296c0-0.115-0.028-0.21-0.083-0.284c-0.054-0.074-0.123-0.13-0.204-0.17
		c-0.082-0.038-0.173-0.065-0.274-0.079c-0.099-0.012-0.195-0.018-0.284-0.018c-0.251,0-0.46,0.052-0.622,0.156
		c-0.163,0.106-0.256,0.27-0.276,0.49h-0.901c0.017-0.264,0.08-0.482,0.19-0.655c0.111-0.174,0.252-0.313,0.422-0.419
		c0.171-0.105,0.364-0.178,0.581-0.221c0.216-0.041,0.436-0.063,0.663-0.063c0.199,0,0.397,0.021,0.592,0.063
		c0.195,0.043,0.369,0.112,0.524,0.206c0.155,0.094,0.281,0.217,0.375,0.367c0.095,0.15,0.141,0.332,0.141,0.548V46.578z
		 M32.828,45.441c-0.138,0.09-0.306,0.143-0.507,0.162c-0.199,0.019-0.399,0.045-0.598,0.083c-0.095,0.016-0.188,0.038-0.277,0.067
		c-0.09,0.028-0.167,0.068-0.235,0.118c-0.07,0.051-0.123,0.117-0.163,0.199c-0.039,0.08-0.058,0.179-0.058,0.294
		c0,0.101,0.028,0.185,0.086,0.253c0.058,0.068,0.128,0.122,0.209,0.161c0.081,0.039,0.171,0.067,0.269,0.083
		c0.098,0.016,0.185,0.023,0.264,0.023c0.1,0,0.207-0.012,0.324-0.039c0.116-0.027,0.225-0.071,0.327-0.133
		c0.103-0.063,0.189-0.143,0.257-0.241c0.068-0.098,0.104-0.217,0.104-0.359V45.441z"/>
</g>
<path fill="#FFFFFF" d="M39.698,41.887c0.231,0,0.45,0.029,0.658,0.087c0.207,0.058,0.388,0.146,0.543,0.264
	c0.155,0.118,0.278,0.271,0.37,0.457c0.092,0.187,0.137,0.405,0.137,0.658c0,0.357-0.092,0.667-0.276,0.929
	c-0.184,0.262-0.456,0.43-0.819,0.504v0.016c0.184,0.026,0.336,0.075,0.457,0.146c0.12,0.071,0.218,0.161,0.295,0.272
	c0.076,0.111,0.13,0.237,0.165,0.382c0.035,0.144,0.056,0.3,0.067,0.469c0.005,0.094,0.01,0.21,0.016,0.346
	c0.005,0.137,0.016,0.275,0.032,0.414c0.016,0.139,0.04,0.27,0.074,0.394c0.035,0.123,0.08,0.219,0.138,0.287h-0.591
	c-0.032-0.052-0.056-0.116-0.075-0.193c-0.019-0.076-0.032-0.155-0.04-0.236c-0.008-0.081-0.014-0.161-0.02-0.24
	c-0.005-0.078-0.01-0.147-0.016-0.204c-0.01-0.199-0.027-0.398-0.05-0.594c-0.024-0.197-0.074-0.373-0.15-0.528
	c-0.076-0.155-0.187-0.279-0.331-0.374c-0.144-0.095-0.343-0.137-0.594-0.126h-2.031v2.496h-0.536v-5.622H39.698z M39.659,44.557
	c0.163,0,0.318-0.025,0.465-0.075c0.146-0.05,0.276-0.122,0.385-0.216c0.111-0.095,0.199-0.209,0.265-0.343
	c0.065-0.134,0.098-0.287,0.098-0.461c0-0.347-0.1-0.619-0.299-0.819c-0.199-0.199-0.504-0.299-0.913-0.299h-2v2.213H39.659z"/>
<path fill="#FFFFFF" d="M44.872,41.887c0.252,0,0.48,0.036,0.685,0.107c0.204,0.071,0.38,0.176,0.527,0.315
	c0.147,0.139,0.26,0.308,0.339,0.508c0.078,0.2,0.118,0.425,0.118,0.677c0,0.252-0.039,0.477-0.118,0.677
	c-0.079,0.2-0.192,0.369-0.339,0.508c-0.147,0.139-0.323,0.244-0.527,0.315c-0.205,0.071-0.434,0.106-0.685,0.106H42.91v2.41h-0.535
	v-5.622H44.872z M44.753,44.643c0.373,0,0.674-0.094,0.906-0.283c0.231-0.189,0.347-0.477,0.347-0.866
	c0-0.389-0.116-0.677-0.347-0.866c-0.231-0.189-0.532-0.284-0.906-0.284H42.91v2.299H44.753z"/>
<path fill="#FFFFFF" d="M51.187,41.887v0.457h-1.961v5.166H48.69v-5.166h-1.952v-0.457H51.187z"/>
<polyline fill="#FFFFFF" points="16.795,27.434 19.307,29.079 18.966,29.801 16.795,28.381 16.795,31.181 15.953,31.181 
	15.953,28.381 13.781,29.801 13.467,29.079 15.953,27.434 15.953,23.547 12.599,25.473 12.436,28.528 11.598,28.581 11.739,25.951 
	9.329,27.351 8.916,26.643 11.365,25.25 8.997,24.057 9.501,23.436 12.156,24.781 15.536,22.744 12.156,20.757 9.501,22.123 
	8.997,21.478 11.365,20.282 8.916,18.887 9.329,18.185 11.739,19.582 11.598,16.953 12.436,17.037 12.599,20.061 15.953,21.992 
	15.953,18.108 13.467,16.459 13.781,15.73 15.953,17.154 15.953,14.352 16.795,14.352 16.795,17.154 18.966,15.73 19.307,16.459 
	16.795,18.108 16.795,21.992 20.167,20.061 20.342,17.037 21.149,16.953 21.011,19.582 23.41,18.185 23.802,18.887 21.373,20.282 
	23.726,21.478 23.249,22.123 20.561,20.757 17.214,22.744 20.561,24.781 23.249,23.436 23.726,24.057 21.373,25.25 23.802,26.643 
	23.41,27.351 21.011,25.951 21.149,28.581 20.342,28.528 20.167,25.473 16.795,23.547 "/>
<rect x="27.217" y="12.988" fill="#FFFFFF" width="1.507" height="20.027"/>
<path fill="#FFFFFF" d="M40.504,26.248c1.855,0,3.339-1.477,3.339-3.301c0-1.846-1.484-3.339-3.339-3.339
	c-1.85,0-3.311,1.494-3.311,3.339C37.193,24.772,38.654,26.248,40.504,26.248 M40.002,27.276c-0.263-0.031-0.499-0.103-0.681-0.162
	l-1.166,2.779l-0.891-0.405l1.119-2.737c-0.228-0.137-0.393-0.266-0.555-0.404l-3.671,3.676l-0.725-0.731l3.695-3.668
	c-0.159-0.132-0.292-0.331-0.416-0.559l-2.756,1.12l-0.391-0.892l2.776-1.155c-0.068-0.239-0.103-0.463-0.127-0.7h-5.199v-0.985
	h5.199c0-0.235,0.024-0.506,0.089-0.736l-2.737-1.119l0.391-0.889l2.713,1.129c0.132-0.24,0.3-0.436,0.422-0.597l-3.594-3.608
	l0.691-0.697l3.641,3.634c0.201-0.199,0.362-0.322,0.555-0.432l-1.119-2.735l0.891-0.392l1.166,2.739
	c0.183-0.06,0.419-0.098,0.681-0.137v-5.089H41v5.127c0.261,0,0.467,0.038,0.694,0.098l1.157-2.739l0.884,0.392l-1.118,2.706
	c0.202,0.138,0.399,0.261,0.592,0.434l3.636-3.672l0.726,0.731l-3.7,3.67c0.204,0.199,0.33,0.356,0.439,0.566l2.736-1.129
	l0.391,0.889L44.7,21.756c0.061,0.192,0.095,0.432,0.132,0.698h5.153v0.985h-5.19c0,0.273-0.034,0.461-0.095,0.7l2.737,1.155
	l-0.391,0.892l-2.736-1.12c-0.11,0.194-0.235,0.359-0.403,0.559l3.604,3.634l-0.692,0.7l-3.637-3.634
	c-0.136,0.126-0.331,0.256-0.565,0.382l1.118,2.782l-0.884,0.405l-1.157-2.779c-0.227,0.059-0.46,0.094-0.694,0.131v5.117h-0.997"/>
</svg>
