<?xml version="1.0" encoding="utf-8"?>
<!-- Generator: Adobe Illustrator 17.0.0, SVG Export Plug-In . SVG Version: 6.00 Build 0)  -->
<!DOCTYPE svg PUBLIC "-//W3C//DTD SVG 1.1 Tiny//EN" "http://www.w3.org/Graphics/SVG/1.1/DTD/svg11-tiny.dtd" [
        <!ENTITY ns_flows "http://ns.adobe.com/Flows/1.0/">
        <!ENTITY ns_extend "http://ns.adobe.com/Extensibility/1.0/">
        <!ENTITY ns_ai "http://ns.adobe.com/AdobeIllustrator/10.0/">
        <!ENTITY ns_graphs "http://ns.adobe.com/Graphs/1.0/">
        ]>
<svg version="1.1" baseProfile="tiny" id="Layer_1"
	 xmlns="http://www.w3.org/2000/svg"
	 x="0px" y="0px" width="57.9px" height="58.5px" viewBox="0 0 57.9 58.5" xml:space="preserve">
<g>
	<path fill="#00BBE7" d="M58.5-0.7H0.4v54.6c0,2.3,1.9,4.2,4.2,4.2h49.8c2.3,0,4.2-1.9,4.2-4.2V-0.7z"/>
	<polygon fill="#FFFFFF" points="18.7,41.3 22.6,41.3 22.6,42.1 19.7,42.1 19.7,43.6 22.2,43.6 22.2,44.4 19.7,44.4 19.7,46.9 
		18.7,46.9 	"/>
	<path fill="#FFFFFF" d="M23.3,42.8h0.8v0.8h0c0-0.1,0.1-0.2,0.2-0.3c0.1-0.1,0.2-0.2,0.3-0.3c0.1-0.1,0.2-0.2,0.4-0.2
		c0.1-0.1,0.3-0.1,0.4-0.1c0.1,0,0.2,0,0.2,0c0,0,0.1,0,0.1,0v0.9c-0.1,0-0.1,0-0.2,0c-0.1,0-0.1,0-0.2,0c-0.2,0-0.3,0-0.4,0.1
		c-0.1,0.1-0.3,0.1-0.4,0.3c-0.1,0.1-0.2,0.3-0.2,0.4c-0.1,0.2-0.1,0.4-0.1,0.6v1.9h-0.9V42.8z"/>
	<path fill="#FFFFFF" d="M28.5,44.8C28.4,44.9,28.2,45,28,45c-0.2,0-0.4,0-0.6,0.1c-0.1,0-0.2,0-0.3,0.1c-0.1,0-0.2,0.1-0.2,0.1
		c-0.1,0-0.1,0.1-0.2,0.2c0,0.1-0.1,0.2-0.1,0.3c0,0.1,0,0.2,0.1,0.2c0.1,0.1,0.1,0.1,0.2,0.2c0.1,0,0.2,0.1,0.3,0.1
		c0.1,0,0.2,0,0.3,0c0.1,0,0.2,0,0.3,0c0.1,0,0.2-0.1,0.3-0.1c0.1-0.1,0.2-0.1,0.3-0.2c0.1-0.1,0.1-0.2,0.1-0.4V44.8z M29.4,46
		c0,0.1,0,0.2,0,0.2c0,0,0.1,0.1,0.2,0.1h0.1c0,0,0.1,0,0.1,0v0.6c0,0-0.1,0-0.1,0c0,0-0.1,0-0.2,0c-0.1,0-0.1,0-0.2,0
		c-0.1,0-0.1,0-0.1,0c-0.2,0-0.3,0-0.5-0.1c-0.1-0.1-0.2-0.2-0.2-0.4c-0.2,0.2-0.4,0.3-0.7,0.4c-0.3,0.1-0.5,0.1-0.8,0.1
		c-0.2,0-0.4,0-0.5-0.1c-0.2-0.1-0.3-0.1-0.4-0.2c-0.1-0.1-0.2-0.2-0.3-0.4c-0.1-0.2-0.1-0.3-0.1-0.5c0-0.3,0-0.5,0.1-0.6
		c0.1-0.2,0.2-0.3,0.4-0.4c0.1-0.1,0.3-0.2,0.5-0.2c0.2,0,0.4-0.1,0.6-0.1c0.2,0,0.3-0.1,0.5-0.1c0.1,0,0.3,0,0.4-0.1
		c0.1,0,0.2-0.1,0.3-0.1c0.1-0.1,0.1-0.2,0.1-0.3c0-0.1,0-0.2-0.1-0.3c-0.1-0.1-0.1-0.1-0.2-0.2c-0.1,0-0.2-0.1-0.3-0.1
		c-0.1,0-0.2,0-0.3,0c-0.3,0-0.5,0.1-0.6,0.2c-0.2,0.1-0.3,0.3-0.3,0.5H26c0-0.3,0.1-0.5,0.2-0.7c0.1-0.2,0.3-0.3,0.4-0.4
		c0.2-0.1,0.4-0.2,0.6-0.2c0.2,0,0.4-0.1,0.7-0.1c0.2,0,0.4,0,0.6,0.1c0.2,0,0.4,0.1,0.5,0.2c0.2,0.1,0.3,0.2,0.4,0.4
		c0.1,0.1,0.1,0.3,0.1,0.5V46z"/>
	<path fill="#FFFFFF" d="M30.4,42.8h0.8v0.6h0c0.1-0.1,0.1-0.2,0.2-0.3c0.1-0.1,0.2-0.2,0.3-0.2c0.1-0.1,0.2-0.1,0.3-0.1
		c0.1,0,0.3-0.1,0.4-0.1c0.2,0,0.5,0.1,0.7,0.2c0.2,0.1,0.4,0.3,0.5,0.5c0.2-0.2,0.3-0.4,0.5-0.5c0.2-0.1,0.4-0.2,0.7-0.2
		c0.4,0,0.8,0.1,1,0.3c0.2,0.2,0.4,0.6,0.4,1.1v2.8h-0.9v-2.4c0-0.2,0-0.3,0-0.4c0-0.1,0-0.2-0.1-0.3c-0.1-0.1-0.1-0.2-0.2-0.2
		c-0.1-0.1-0.2-0.1-0.4-0.1c-0.3,0-0.5,0.1-0.7,0.3c-0.1,0.2-0.2,0.5-0.2,0.8v2.4h-0.9v-2.6c0-0.3-0.1-0.5-0.2-0.6
		c-0.1-0.1-0.3-0.2-0.6-0.2c-0.1,0-0.2,0-0.3,0.1c-0.1,0-0.2,0.1-0.3,0.2c-0.1,0.1-0.1,0.2-0.2,0.3c-0.1,0.1-0.1,0.3-0.1,0.4v2.4
		h-0.9V42.8z"/>
	<path fill="#FFFFFF" d="M40,44.5c0-0.1,0-0.3-0.1-0.4c0-0.1-0.1-0.2-0.2-0.3c-0.1-0.1-0.2-0.2-0.3-0.2c-0.1-0.1-0.3-0.1-0.4-0.1
		c-0.2,0-0.3,0-0.4,0.1c-0.1,0.1-0.2,0.1-0.3,0.2c-0.1,0.1-0.2,0.2-0.2,0.3c-0.1,0.1-0.1,0.3-0.1,0.4H40z M37.9,45.1
		c0,0.2,0,0.3,0.1,0.5c0,0.1,0.1,0.3,0.2,0.4c0.1,0.1,0.2,0.2,0.3,0.3c0.1,0.1,0.3,0.1,0.5,0.1c0.3,0,0.5-0.1,0.6-0.2
		c0.2-0.1,0.3-0.3,0.4-0.5h0.8c0,0.2-0.1,0.4-0.2,0.6c-0.1,0.2-0.3,0.3-0.4,0.4c-0.2,0.1-0.3,0.2-0.5,0.3C39.5,46.9,39.3,47,39,47
		c-0.3,0-0.6-0.1-0.8-0.2c-0.2-0.1-0.5-0.3-0.6-0.4c-0.2-0.2-0.3-0.4-0.4-0.7c-0.1-0.3-0.1-0.6-0.1-0.9c0-0.3,0-0.6,0.1-0.8
		s0.2-0.5,0.4-0.7c0.2-0.2,0.4-0.4,0.6-0.5c0.2-0.1,0.5-0.2,0.8-0.2c0.3,0,0.6,0.1,0.9,0.2c0.3,0.1,0.5,0.3,0.6,0.5
		c0.2,0.2,0.3,0.5,0.4,0.8c0.1,0.3,0.1,0.6,0.1,0.9H37.9z"/>
	<path fill="#FFFFFF" d="M31.1,26h8.3v8.3h-8.3V26z M21,26h8.3v8.3H21V26z M29.4,24.2H21v-8.3h8.3V24.2z M39.5,24.2h-8.3v-8.3h8.3
		V24.2z M19.3,36.1h22v-22h-22V36.1z"/>
	<path fill="none" stroke="#FFFFFF" stroke-width="0.5908" stroke-miterlimit="10" d="M31.1,26h8.3v8.3h-8.3V26z M21,26h8.3v8.3H21
		V26z M29.4,24.2H21v-8.3h8.3V24.2z M39.5,24.2h-8.3v-8.3h8.3V24.2z M19.3,36.1h22v-22h-22V36.1z"/>
	<polygon fill="#FFFFFF" points="37.4,22.5 30.2,22.5 30.2,21.9 37.1,21.9 37.1,15 37.7,15 37.7,22.2 	"/>
	<polygon fill="#FFFFFF" points="37.4,32.6 30.2,32.6 30.2,32 37.1,32 37.1,25.1 37.7,25.1 37.7,32.3 	"/>
	<polygon fill="#FFFFFF" points="27.3,22.5 20.1,22.5 20.1,21.9 27,21.9 27,15 27.6,15 27.6,22.2 	"/>
	<polygon fill="#FFFFFF" points="27.3,32.6 20.1,32.6 20.1,32 27,32 27,25.1 27.6,25.1 27.6,32.3 	"/>
	<path fill="#FFFFFF" d="M17.2,33.6l1.7,1.7V14.1l0.3-0.3h21.3l-1.7-1.7H17.2V33.6z M19,36.3L16.7,34l-0.1-0.2v-22l0.3-0.3h22
		l0.2,0.1l2.3,2.3l-0.2,0.5H19.5v21.7L19,36.3z"/>
</g>
</svg>
