<?xml version="1.0" encoding="utf-8"?>
<!-- Generator: Adobe Illustrator 21.0.0, SVG Export Plug-In . SVG Version: 6.00 Build 0)  -->
<svg version="1.1" id="Layer_1" xmlns="http://www.w3.org/2000/svg" xmlns:xlink="http://www.w3.org/1999/xlink" x="0px" y="0px"
	 viewBox="0 0 57.9 58.5" style="enable-background:new 0 0 57.9 58.5;" xml:space="preserve">
<style type="text/css">
	.st0{fill:#FFFFFF;}
	.st1{fill:#8C8F8F;}
</style>
<g>
	<path class="st0" d="M30.5,20c-3.6,0-7.2-0.7-10.6-2.2v1.7c3.4,1.3,7,2,10.6,2c3.5,0,7-0.6,10.4-1.9v-1.7C37.6,19.3,34,20,30.5,20z
		"/>
	<path class="st0" d="M30.5,28c-3.6,0-7.2-0.7-10.6-2.2v1.7c3.4,1.3,7,2,10.6,2c3.5,0,7-0.6,10.4-1.9v-1.7C37.6,27.3,34,28,30.5,28z
		"/>
	<path class="st0" d="M40.9,35v-1.7c-3.3,1.4-6.8,2.1-10.4,2.1s-7.2-0.7-10.6-2.2v1.7c3.4,1.3,7,2,10.6,2C34,36.9,37.5,36.2,40.9,35
		z"/>
</g>
<g>
	<path class="st1" d="M57.9,0.3H0v54.3c0,2.3,1.9,4.1,4.1,4.1h49.6c2.3,0,4.1-1.9,4.1-4.1V0.3z"/>
	<g>
		<path class="st0" d="M17.6,34.8h-4.1V15.1h14v3.5h-9.9V23h8.7v3.5h-8.7V34.8z"/>
		<path class="st0" d="M34.4,34.8h-4.1V15.1h9c3.8,0,6.1,2.4,6.1,6.3c0,1.8-1,6.3-6.3,6.3h-4.7V34.8z M38.2,24.3
			c3.1,0,3.1-2.2,3.1-3.1c0-1.9-1.1-2.7-3.6-2.7h-3.3v5.8H38.2z"/>
	</g>
	<g>
		<path class="st0" d="M6.8,48.1H5.7v-5.2h3.7v0.9H6.8V45h2.3v0.9H6.8V48.1z"/>
		<path class="st0" d="M9.6,44.3h1v0.7h0c0.2-0.4,0.4-0.8,1.1-0.8c0.1,0,0.1,0,0.2,0v1c-0.1,0-0.2,0-0.3,0c-0.8,0-0.9,0.5-0.9,0.9v2
			h-1V44.3z"/>
		<path class="st0" d="M15.6,47c-0.3,0.9-1,1.2-1.7,1.2c-1.1,0-1.9-0.5-1.9-2.1c0-0.5,0.2-2,1.9-2c0.8,0,1.8,0.4,1.8,2.1v0.2H13
			c0,0.3,0.1,0.9,0.9,0.9c0.3,0,0.6-0.1,0.7-0.4H15.6z M14.6,45.8c-0.1-0.6-0.5-0.8-0.8-0.8c-0.5,0-0.7,0.3-0.8,0.8H14.6z"/>
		<path class="st0" d="M19.9,48.1h-1v-2.3c0-0.3,0-0.8-0.7-0.8c-0.5,0-0.8,0.3-0.8,0.9v2.2h-1v-3.9h1v0.6h0c0.1-0.2,0.4-0.7,1.2-0.7
			c0.8,0,1.3,0.4,1.3,1.3V48.1z"/>
		<path class="st0" d="M21.9,44.3h0.6V45h-0.6v2.1c0,0.2,0,0.3,0.4,0.3c0.1,0,0.1,0,0.2,0v0.8c-0.2,0-0.3,0-0.5,0H22
			c-0.9,0-1-0.3-1-0.8V45h-0.5v-0.7h0.5v-1h1V44.3z"/>
		<path class="st0" d="M26.4,47c-0.3,0.9-1,1.2-1.7,1.2c-1.1,0-1.9-0.5-1.9-2.1c0-0.5,0.2-2,1.9-2c0.8,0,1.8,0.4,1.8,2.1v0.2h-2.7
			c0,0.3,0.1,0.9,0.9,0.9c0.3,0,0.6-0.1,0.7-0.4H26.4z M25.4,45.8C25.4,45.2,25,45,24.6,45c-0.5,0-0.7,0.3-0.8,0.8H25.4z"/>
		<path class="st0" d="M28.3,48.1h-1.1v-5.2h2.4c1,0,1.6,0.6,1.6,1.7c0,0.5-0.3,1.7-1.7,1.7h-1.2V48.1z M29.3,45.3
			c0.8,0,0.8-0.6,0.8-0.8c0-0.5-0.3-0.7-1-0.7h-0.9v1.5H29.3z"/>
		<path class="st0" d="M33,48.1h-1v-5.2h1V48.1z"/>
		<path class="st0" d="M37.1,47.4c0,0.5,0.1,0.6,0.2,0.6v0.2h-1.1c-0.1-0.2-0.1-0.2-0.1-0.5c-0.2,0.2-0.6,0.6-1.2,0.6
			c-0.6,0-1.2-0.3-1.2-1.1c0-0.8,0.5-1.1,1.1-1.2l0.9-0.1c0.2,0,0.4-0.1,0.4-0.3c0-0.4-0.4-0.5-0.7-0.5c-0.5,0-0.6,0.3-0.6,0.5h-1
			c0.1-1.2,0.9-1.4,1.7-1.4c0.5,0,1.5,0.2,1.5,1.1V47.4z M36.1,46.2c-0.1,0.1-0.3,0.1-0.7,0.2c-0.4,0.1-0.7,0.2-0.7,0.6
			c0,0.4,0.3,0.5,0.5,0.5c0.5,0,0.9-0.3,0.9-0.8V46.2z"/>
		<path class="st0" d="M41.4,46.7c0,0.4-0.3,1.5-1.8,1.5c-1.5,0-1.8-1.1-1.8-1.9c0-1.2,0.5-2.1,1.9-2.1c0.6,0,1.6,0.3,1.7,1.5h-1
			c0-0.2-0.2-0.6-0.6-0.6h-0.1c-0.6,0-0.8,0.6-0.8,1.1c0,0.4,0,1.3,0.8,1.3c0.5,0,0.7-0.5,0.7-0.7H41.4z"/>
		<path class="st0" d="M45.2,47.4c0,0.5,0.1,0.6,0.2,0.6v0.2h-1.1c-0.1-0.2-0.1-0.2-0.1-0.5c-0.2,0.2-0.6,0.6-1.2,0.6
			c-0.6,0-1.2-0.3-1.2-1.1c0-0.8,0.5-1.1,1.1-1.2l0.9-0.1c0.2,0,0.4-0.1,0.4-0.3c0-0.4-0.4-0.5-0.7-0.5c-0.5,0-0.6,0.3-0.6,0.5h-1
			c0.1-1.2,0.9-1.4,1.7-1.4c0.5,0,1.5,0.2,1.5,1.1V47.4z M44.2,46.2c-0.1,0.1-0.3,0.1-0.7,0.2c-0.4,0.1-0.7,0.2-0.7,0.6
			c0,0.4,0.3,0.5,0.5,0.5c0.5,0,0.9-0.3,0.9-0.8V46.2z"/>
		<path class="st0" d="M46.1,44.3h1v0.7h0c0.2-0.4,0.4-0.8,1.1-0.8c0.1,0,0.1,0,0.2,0v1c-0.1,0-0.2,0-0.3,0c-0.8,0-0.9,0.5-0.9,0.9
			v2h-1V44.3z"/>
		<path class="st0" d="M52.3,48.1h-1v-0.5h0c-0.2,0.4-0.7,0.6-1.1,0.6c-1.1,0-1.6-1-1.6-2.1c0-1.3,0.8-2,1.6-2c0.7,0,1,0.4,1.1,0.6
			h0v-1.9h1V48.1z M50.5,47.4c0.6,0,0.9-0.5,0.9-1.1c0-0.6-0.2-1.2-0.9-1.2c-0.6,0-0.9,0.6-0.9,1.2C49.6,46.7,49.8,47.4,50.5,47.4z"
			/>
	</g>
</g>
</svg>
