<?xml version="1.0" encoding="utf-8"?>
<!-- Generator: Adobe Illustrator 21.0.0, SVG Export Plug-In . SVG Version: 6.00 Build 0)  -->
<svg version="1.1" id="Layer_1" xmlns="http://www.w3.org/2000/svg" xmlns:xlink="http://www.w3.org/1999/xlink" x="0px" y="0px"
	 viewBox="0 0 57.9 58.5" style="enable-background:new 0 0 57.9 58.5;" xml:space="preserve">
<style type="text/css">
	.st0{fill:#B2CEE9;}
	.st1{fill:#FFFFFF;}
</style>
<g>
	<path class="st0" d="M57.9,0H0v54.3c0,2.3,1.9,4.1,4.1,4.1h49.6c2.3,0,4.1-1.9,4.1-4.1V0z"/>
	<g>
		<path class="st1" d="M28.6,36.7h-4.3V18.2h-0.1l-4.1,18.5h-4.5l-4-18.5h-0.1v18.5H7.1V14.6h6.7l4,17.4h0.1l3.9-17.4h6.7V36.7z"/>
		<path class="st1" d="M33,14.6h11.2c5.9,0,7,4.3,7,6.3c0,2.4-1.2,4.5-3.4,5.3c1.8,0.8,2.8,1.5,2.8,5.6c0,3.2,0,4,1,4.4v0.6h-5.1
			c-0.3-1-0.5-2.2-0.5-4.5c0-3-0.2-4.2-3.6-4.2h-4.8v8.7H33V14.6z M43,24.3c2.4,0,3.6-0.8,3.6-3c0-1.2-0.5-2.9-3.2-2.9h-5.8v5.9H43z
			"/>
	</g>
	<g>
		<path class="st1" d="M10.1,48.1H9.2v-3.7h0l-0.8,3.7H7.5l-0.8-3.7h0v3.7H5.8v-4.4h1.3L8,47.2h0l0.8-3.5h1.3V48.1z"/>
		<path class="st1" d="M13.6,47.5c0,0.4,0.1,0.5,0.2,0.5v0.1h-0.9c0-0.2-0.1-0.2-0.1-0.4c-0.2,0.2-0.5,0.5-1.1,0.5c-0.5,0-1-0.3-1-1
			c0-0.6,0.4-1,1-1l0.8-0.1c0.1,0,0.3-0.1,0.3-0.3c0-0.4-0.3-0.4-0.6-0.4c-0.4,0-0.5,0.3-0.5,0.5h-0.8c0.1-1,0.8-1.1,1.5-1.1
			c0.5,0,1.3,0.1,1.3,0.9V47.5z M12.7,46.5c-0.1,0.1-0.2,0.1-0.6,0.2c-0.3,0.1-0.6,0.1-0.6,0.5c0,0.3,0.2,0.4,0.4,0.4
			c0.4,0,0.8-0.2,0.8-0.6V46.5z"/>
		<path class="st1" d="M14.3,44.9h0.8v0.6h0c0.2-0.3,0.4-0.7,0.9-0.7c0.1,0,0.1,0,0.2,0v0.9c-0.1,0-0.2,0-0.2,0
			c-0.7,0-0.8,0.4-0.8,0.8v1.7h-0.9V44.9z"/>
		<path class="st1" d="M19.4,46.9c0,0.3-0.3,1.3-1.5,1.3c-1.2,0-1.5-0.9-1.5-1.6c0-1.1,0.5-1.8,1.6-1.8c0.5,0,1.4,0.2,1.4,1.3h-0.9
			c0-0.2-0.2-0.5-0.5-0.5h0c-0.5,0-0.7,0.5-0.7,0.9c0,0.4,0,1.1,0.7,1.1c0.4,0,0.6-0.4,0.6-0.6H19.4z"/>
		<path class="st1" d="M21.5,48.2c-0.9,0-1.7-0.5-1.7-1.7c0-1.2,0.8-1.7,1.7-1.7c0.9,0,1.7,0.5,1.7,1.7
			C23.2,47.7,22.4,48.2,21.5,48.2z M21.5,45.5c-0.7,0-0.8,0.6-0.8,1c0,0.4,0.1,1,0.8,1c0.7,0,0.8-0.6,0.8-1
			C22.3,46.1,22.1,45.5,21.5,45.5z"/>
		<path class="st1" d="M23.8,43.7H26c1.2,0,1.4,0.9,1.4,1.2c0,0.5-0.2,0.9-0.7,1c0.4,0.2,0.6,0.3,0.6,1.1c0,0.6,0,0.8,0.2,0.9v0.1
			h-1c-0.1-0.2-0.1-0.4-0.1-0.9c0-0.6,0-0.8-0.7-0.8h-1v1.7h-0.9V43.7z M25.8,45.7c0.5,0,0.7-0.2,0.7-0.6c0-0.2-0.1-0.6-0.6-0.6
			h-1.1v1.2H25.8z"/>
		<path class="st1" d="M30.9,47.2c-0.2,0.8-0.9,1-1.4,1c-0.9,0-1.6-0.4-1.6-1.8c0-0.4,0.1-1.6,1.6-1.6c0.6,0,1.5,0.3,1.5,1.8v0.2
			h-2.2c0,0.2,0.1,0.8,0.8,0.8c0.2,0,0.5-0.1,0.6-0.4H30.9z M30,46.2c0-0.5-0.4-0.7-0.7-0.7c-0.4,0-0.6,0.3-0.7,0.7H30z"/>
		<path class="st1" d="M34.5,44.9V48c0,0.6,0,1.5-1.7,1.5c-0.7,0-1.4-0.3-1.4-1h0.9c0,0.2,0.1,0.3,0.6,0.3c0.5,0,0.7-0.2,0.7-0.7
			v-0.4l0,0c-0.1,0.3-0.4,0.5-0.9,0.5c-0.8,0-1.4-0.5-1.4-1.7c0-1.1,0.6-1.7,1.4-1.7c0.6,0,0.9,0.4,1,0.6h0v-0.5H34.5z M32.9,47.4
			c0.6,0,0.7-0.5,0.7-0.9c0-0.5-0.3-1-0.7-1c-0.3,0-0.7,0.2-0.7,1C32.2,46.9,32.4,47.4,32.9,47.4z"/>
		<path class="st1" d="M38.2,48.1h-0.8v-0.5h0c-0.2,0.3-0.5,0.5-1,0.5c-0.6,0-1.1-0.4-1.1-1.2v-2.1h0.9v2c0,0.5,0.3,0.6,0.6,0.6
			c0.3,0,0.7-0.2,0.7-0.7v-1.9h0.9V48.1z"/>
		<path class="st1" d="M39.9,48.1H39v-4.4h0.9V48.1z"/>
		<path class="st1" d="M43.3,47.5c0,0.4,0.1,0.5,0.2,0.5v0.1h-0.9c0-0.2-0.1-0.2-0.1-0.4c-0.2,0.2-0.5,0.5-1.1,0.5c-0.5,0-1-0.3-1-1
			c0-0.6,0.4-1,1-1l0.8-0.1c0.1,0,0.3-0.1,0.3-0.3c0-0.4-0.3-0.4-0.6-0.4c-0.4,0-0.5,0.3-0.5,0.5h-0.8c0.1-1,0.8-1.1,1.5-1.1
			c0.5,0,1.3,0.1,1.3,0.9V47.5z M42.5,46.5c-0.1,0.1-0.2,0.1-0.6,0.2c-0.3,0.1-0.6,0.1-0.6,0.5c0,0.3,0.2,0.4,0.4,0.4
			c0.4,0,0.8-0.2,0.8-0.6V46.5z"/>
		<path class="st1" d="M44.9,45.3L44.9,45.3c0.1-0.2,0.4-0.5,1-0.5c0.7,0,1.4,0.6,1.4,1.7c0,0.9-0.4,1.8-1.4,1.8
			c-0.4,0-0.7-0.1-0.9-0.5h0v0.4h-0.8v-4.4h0.9V45.3z M45.6,45.5c-0.6,0-0.7,0.5-0.7,1c0,0.5,0.2,0.9,0.8,0.9c0.6,0,0.7-0.6,0.7-1
			C46.3,46,46.2,45.5,45.6,45.5z"/>
		<path class="st1" d="M48.7,48.1h-0.9v-4.4h0.9V48.1z"/>
		<path class="st1" d="M52.3,47.2c-0.2,0.8-0.9,1-1.4,1c-0.9,0-1.6-0.4-1.6-1.8c0-0.4,0.1-1.6,1.6-1.6c0.6,0,1.5,0.3,1.5,1.8v0.2
			h-2.2c0,0.2,0.1,0.8,0.8,0.8c0.2,0,0.5-0.1,0.6-0.4H52.3z M51.4,46.2c0-0.5-0.4-0.7-0.7-0.7c-0.4,0-0.6,0.3-0.7,0.7H51.4z"/>
	</g>
</g>
</svg>
